<?xml version="1.0" encoding="utf-8" standalone="no"?>
<!DOCTYPE svg PUBLIC "-//W3C//DTD SVG 1.1//EN"
  "http://www.w3.org/Graphics/SVG/1.1/DTD/svg11.dtd">
<svg xmlns:xlink="http://www.w3.org/1999/xlink" width="720pt" height="432pt" viewBox="0 0 720 432" xmlns="http://www.w3.org/2000/svg" version="1.1">
 <metadata>
  <rdf:RDF xmlns:dc="http://purl.org/dc/elements/1.1/" xmlns:cc="http://creativecommons.org/ns#" xmlns:rdf="http://www.w3.org/1999/02/22-rdf-syntax-ns#">
   <cc:Work>
    <dc:type rdf:resource="http://purl.org/dc/dcmitype/StillImage"/>
    <dc:date>2025-01-27T23:57:27.699360</dc:date>
    <dc:format>image/svg+xml</dc:format>
    <dc:creator>
     <cc:Agent>
      <dc:title>Matplotlib v3.5.1, https://matplotlib.org/</dc:title>
     </cc:Agent>
    </dc:creator>
   </cc:Work>
  </rdf:RDF>
 </metadata>
 <defs>
  <style type="text/css">*{stroke-linejoin: round; stroke-linecap: butt}</style>
 </defs>
 <g id="figure_1">
  <g id="patch_1">
   <path d="M 0 432 
L 720 432 
L 720 0 
L 0 0 
z
" style="fill: #ffffff"/>
  </g>
  <g id="axes_1">
   <g id="patch_2">
    <path d="M 90 384.48 
L 648 384.48 
L 648 51.84 
L 90 51.84 
z
" style="fill: #ffffff"/>
   </g>
   <g id="matplotlib.axis_1">
    <g id="xtick_1">
     <g id="line2d_1">
      <path d="M 115.363636 384.48 
L 115.363636 51.84 
" clip-path="url(#p0def2b70fa)" style="fill: none; stroke: #b0b0b0; stroke-width: 0.8; stroke-linecap: square"/>
     </g>
     <g id="line2d_2">
      <defs>
       <path id="m337a868aaf" d="M 0 0 
L 0 3.5 
" style="stroke: #000000; stroke-width: 0.8"/>
      </defs>
      <g>
       <use xlink:href="#m337a868aaf" x="115.363636" y="384.48" style="stroke: #000000; stroke-width: 0.8"/>
      </g>
     </g>
     <g id="text_1">
      <!-- 0 -->
      <g transform="translate(112.182386 399.078438)scale(0.1 -0.1)">
       <defs>
        <path id="DejaVuSans-30" d="M 2034 4250 
Q 1547 4250 1301 3770 
Q 1056 3291 1056 2328 
Q 1056 1369 1301 889 
Q 1547 409 2034 409 
Q 2525 409 2770 889 
Q 3016 1369 3016 2328 
Q 3016 3291 2770 3770 
Q 2525 4250 2034 4250 
z
M 2034 4750 
Q 2819 4750 3233 4129 
Q 3647 3509 3647 2328 
Q 3647 1150 3233 529 
Q 2819 -91 2034 -91 
Q 1250 -91 836 529 
Q 422 1150 422 2328 
Q 422 3509 836 4129 
Q 1250 4750 2034 4750 
z
" transform="scale(0.015625)"/>
       </defs>
       <use xlink:href="#DejaVuSans-30"/>
      </g>
     </g>
    </g>
    <g id="xtick_2">
     <g id="line2d_3">
      <path d="M 179.091366 384.48 
L 179.091366 51.84 
" clip-path="url(#p0def2b70fa)" style="fill: none; stroke: #b0b0b0; stroke-width: 0.8; stroke-linecap: square"/>
     </g>
     <g id="line2d_4">
      <g>
       <use xlink:href="#m337a868aaf" x="179.091366" y="384.48" style="stroke: #000000; stroke-width: 0.8"/>
      </g>
     </g>
     <g id="text_2">
      <!-- 25 -->
      <g transform="translate(172.728866 399.078438)scale(0.1 -0.1)">
       <defs>
        <path id="DejaVuSans-32" d="M 1228 531 
L 3431 531 
L 3431 0 
L 469 0 
L 469 531 
Q 828 903 1448 1529 
Q 2069 2156 2228 2338 
Q 2531 2678 2651 2914 
Q 2772 3150 2772 3378 
Q 2772 3750 2511 3984 
Q 2250 4219 1831 4219 
Q 1534 4219 1204 4116 
Q 875 4013 500 3803 
L 500 4441 
Q 881 4594 1212 4672 
Q 1544 4750 1819 4750 
Q 2544 4750 2975 4387 
Q 3406 4025 3406 3419 
Q 3406 3131 3298 2873 
Q 3191 2616 2906 2266 
Q 2828 2175 2409 1742 
Q 1991 1309 1228 531 
z
" transform="scale(0.015625)"/>
        <path id="DejaVuSans-35" d="M 691 4666 
L 3169 4666 
L 3169 4134 
L 1269 4134 
L 1269 2991 
Q 1406 3038 1543 3061 
Q 1681 3084 1819 3084 
Q 2600 3084 3056 2656 
Q 3513 2228 3513 1497 
Q 3513 744 3044 326 
Q 2575 -91 1722 -91 
Q 1428 -91 1123 -41 
Q 819 9 494 109 
L 494 744 
Q 775 591 1075 516 
Q 1375 441 1709 441 
Q 2250 441 2565 725 
Q 2881 1009 2881 1497 
Q 2881 1984 2565 2268 
Q 2250 2553 1709 2553 
Q 1456 2553 1204 2497 
Q 953 2441 691 2322 
L 691 4666 
z
" transform="scale(0.015625)"/>
       </defs>
       <use xlink:href="#DejaVuSans-32"/>
       <use xlink:href="#DejaVuSans-35" x="63.623047"/>
      </g>
     </g>
    </g>
    <g id="xtick_3">
     <g id="line2d_5">
      <path d="M 242.819095 384.48 
L 242.819095 51.84 
" clip-path="url(#p0def2b70fa)" style="fill: none; stroke: #b0b0b0; stroke-width: 0.8; stroke-linecap: square"/>
     </g>
     <g id="line2d_6">
      <g>
       <use xlink:href="#m337a868aaf" x="242.819095" y="384.48" style="stroke: #000000; stroke-width: 0.8"/>
      </g>
     </g>
     <g id="text_3">
      <!-- 50 -->
      <g transform="translate(236.456595 399.078438)scale(0.1 -0.1)">
       <use xlink:href="#DejaVuSans-35"/>
       <use xlink:href="#DejaVuSans-30" x="63.623047"/>
      </g>
     </g>
    </g>
    <g id="xtick_4">
     <g id="line2d_7">
      <path d="M 306.546825 384.48 
L 306.546825 51.84 
" clip-path="url(#p0def2b70fa)" style="fill: none; stroke: #b0b0b0; stroke-width: 0.8; stroke-linecap: square"/>
     </g>
     <g id="line2d_8">
      <g>
       <use xlink:href="#m337a868aaf" x="306.546825" y="384.48" style="stroke: #000000; stroke-width: 0.8"/>
      </g>
     </g>
     <g id="text_4">
      <!-- 75 -->
      <g transform="translate(300.184325 399.078438)scale(0.1 -0.1)">
       <defs>
        <path id="DejaVuSans-37" d="M 525 4666 
L 3525 4666 
L 3525 4397 
L 1831 0 
L 1172 0 
L 2766 4134 
L 525 4134 
L 525 4666 
z
" transform="scale(0.015625)"/>
       </defs>
       <use xlink:href="#DejaVuSans-37"/>
       <use xlink:href="#DejaVuSans-35" x="63.623047"/>
      </g>
     </g>
    </g>
    <g id="xtick_5">
     <g id="line2d_9">
      <path d="M 370.274555 384.48 
L 370.274555 51.84 
" clip-path="url(#p0def2b70fa)" style="fill: none; stroke: #b0b0b0; stroke-width: 0.8; stroke-linecap: square"/>
     </g>
     <g id="line2d_10">
      <g>
       <use xlink:href="#m337a868aaf" x="370.274555" y="384.48" style="stroke: #000000; stroke-width: 0.8"/>
      </g>
     </g>
     <g id="text_5">
      <!-- 100 -->
      <g transform="translate(360.730805 399.078438)scale(0.1 -0.1)">
       <defs>
        <path id="DejaVuSans-31" d="M 794 531 
L 1825 531 
L 1825 4091 
L 703 3866 
L 703 4441 
L 1819 4666 
L 2450 4666 
L 2450 531 
L 3481 531 
L 3481 0 
L 794 0 
L 794 531 
z
" transform="scale(0.015625)"/>
       </defs>
       <use xlink:href="#DejaVuSans-31"/>
       <use xlink:href="#DejaVuSans-30" x="63.623047"/>
       <use xlink:href="#DejaVuSans-30" x="127.246094"/>
      </g>
     </g>
    </g>
    <g id="xtick_6">
     <g id="line2d_11">
      <path d="M 434.002284 384.48 
L 434.002284 51.84 
" clip-path="url(#p0def2b70fa)" style="fill: none; stroke: #b0b0b0; stroke-width: 0.8; stroke-linecap: square"/>
     </g>
     <g id="line2d_12">
      <g>
       <use xlink:href="#m337a868aaf" x="434.002284" y="384.48" style="stroke: #000000; stroke-width: 0.8"/>
      </g>
     </g>
     <g id="text_6">
      <!-- 125 -->
      <g transform="translate(424.458534 399.078438)scale(0.1 -0.1)">
       <use xlink:href="#DejaVuSans-31"/>
       <use xlink:href="#DejaVuSans-32" x="63.623047"/>
       <use xlink:href="#DejaVuSans-35" x="127.246094"/>
      </g>
     </g>
    </g>
    <g id="xtick_7">
     <g id="line2d_13">
      <path d="M 497.730014 384.48 
L 497.730014 51.84 
" clip-path="url(#p0def2b70fa)" style="fill: none; stroke: #b0b0b0; stroke-width: 0.8; stroke-linecap: square"/>
     </g>
     <g id="line2d_14">
      <g>
       <use xlink:href="#m337a868aaf" x="497.730014" y="384.48" style="stroke: #000000; stroke-width: 0.8"/>
      </g>
     </g>
     <g id="text_7">
      <!-- 150 -->
      <g transform="translate(488.186264 399.078438)scale(0.1 -0.1)">
       <use xlink:href="#DejaVuSans-31"/>
       <use xlink:href="#DejaVuSans-35" x="63.623047"/>
       <use xlink:href="#DejaVuSans-30" x="127.246094"/>
      </g>
     </g>
    </g>
    <g id="xtick_8">
     <g id="line2d_15">
      <path d="M 561.457743 384.48 
L 561.457743 51.84 
" clip-path="url(#p0def2b70fa)" style="fill: none; stroke: #b0b0b0; stroke-width: 0.8; stroke-linecap: square"/>
     </g>
     <g id="line2d_16">
      <g>
       <use xlink:href="#m337a868aaf" x="561.457743" y="384.48" style="stroke: #000000; stroke-width: 0.8"/>
      </g>
     </g>
     <g id="text_8">
      <!-- 175 -->
      <g transform="translate(551.913993 399.078438)scale(0.1 -0.1)">
       <use xlink:href="#DejaVuSans-31"/>
       <use xlink:href="#DejaVuSans-37" x="63.623047"/>
       <use xlink:href="#DejaVuSans-35" x="127.246094"/>
      </g>
     </g>
    </g>
    <g id="xtick_9">
     <g id="line2d_17">
      <path d="M 625.185473 384.48 
L 625.185473 51.84 
" clip-path="url(#p0def2b70fa)" style="fill: none; stroke: #b0b0b0; stroke-width: 0.8; stroke-linecap: square"/>
     </g>
     <g id="line2d_18">
      <g>
       <use xlink:href="#m337a868aaf" x="625.185473" y="384.48" style="stroke: #000000; stroke-width: 0.8"/>
      </g>
     </g>
     <g id="text_9">
      <!-- 200 -->
      <g transform="translate(615.641723 399.078438)scale(0.1 -0.1)">
       <use xlink:href="#DejaVuSans-32"/>
       <use xlink:href="#DejaVuSans-30" x="63.623047"/>
       <use xlink:href="#DejaVuSans-30" x="127.246094"/>
      </g>
     </g>
    </g>
    <g id="text_10">
     <!-- Epoch -->
     <g transform="translate(353.689062 412.756563)scale(0.1 -0.1)">
      <defs>
       <path id="DejaVuSans-45" d="M 628 4666 
L 3578 4666 
L 3578 4134 
L 1259 4134 
L 1259 2753 
L 3481 2753 
L 3481 2222 
L 1259 2222 
L 1259 531 
L 3634 531 
L 3634 0 
L 628 0 
L 628 4666 
z
" transform="scale(0.015625)"/>
       <path id="DejaVuSans-70" d="M 1159 525 
L 1159 -1331 
L 581 -1331 
L 581 3500 
L 1159 3500 
L 1159 2969 
Q 1341 3281 1617 3432 
Q 1894 3584 2278 3584 
Q 2916 3584 3314 3078 
Q 3713 2572 3713 1747 
Q 3713 922 3314 415 
Q 2916 -91 2278 -91 
Q 1894 -91 1617 61 
Q 1341 213 1159 525 
z
M 3116 1747 
Q 3116 2381 2855 2742 
Q 2594 3103 2138 3103 
Q 1681 3103 1420 2742 
Q 1159 2381 1159 1747 
Q 1159 1113 1420 752 
Q 1681 391 2138 391 
Q 2594 391 2855 752 
Q 3116 1113 3116 1747 
z
" transform="scale(0.015625)"/>
       <path id="DejaVuSans-6f" d="M 1959 3097 
Q 1497 3097 1228 2736 
Q 959 2375 959 1747 
Q 959 1119 1226 758 
Q 1494 397 1959 397 
Q 2419 397 2687 759 
Q 2956 1122 2956 1747 
Q 2956 2369 2687 2733 
Q 2419 3097 1959 3097 
z
M 1959 3584 
Q 2709 3584 3137 3096 
Q 3566 2609 3566 1747 
Q 3566 888 3137 398 
Q 2709 -91 1959 -91 
Q 1206 -91 779 398 
Q 353 888 353 1747 
Q 353 2609 779 3096 
Q 1206 3584 1959 3584 
z
" transform="scale(0.015625)"/>
       <path id="DejaVuSans-63" d="M 3122 3366 
L 3122 2828 
Q 2878 2963 2633 3030 
Q 2388 3097 2138 3097 
Q 1578 3097 1268 2742 
Q 959 2388 959 1747 
Q 959 1106 1268 751 
Q 1578 397 2138 397 
Q 2388 397 2633 464 
Q 2878 531 3122 666 
L 3122 134 
Q 2881 22 2623 -34 
Q 2366 -91 2075 -91 
Q 1284 -91 818 406 
Q 353 903 353 1747 
Q 353 2603 823 3093 
Q 1294 3584 2113 3584 
Q 2378 3584 2631 3529 
Q 2884 3475 3122 3366 
z
" transform="scale(0.015625)"/>
       <path id="DejaVuSans-68" d="M 3513 2113 
L 3513 0 
L 2938 0 
L 2938 2094 
Q 2938 2591 2744 2837 
Q 2550 3084 2163 3084 
Q 1697 3084 1428 2787 
Q 1159 2491 1159 1978 
L 1159 0 
L 581 0 
L 581 4863 
L 1159 4863 
L 1159 2956 
Q 1366 3272 1645 3428 
Q 1925 3584 2291 3584 
Q 2894 3584 3203 3211 
Q 3513 2838 3513 2113 
z
" transform="scale(0.015625)"/>
      </defs>
      <use xlink:href="#DejaVuSans-45"/>
      <use xlink:href="#DejaVuSans-70" x="63.183594"/>
      <use xlink:href="#DejaVuSans-6f" x="126.660156"/>
      <use xlink:href="#DejaVuSans-63" x="187.841797"/>
      <use xlink:href="#DejaVuSans-68" x="242.822266"/>
     </g>
    </g>
   </g>
   <g id="matplotlib.axis_2">
    <g id="ytick_1">
     <g id="line2d_19">
      <path d="M 90 369.674836 
L 648 369.674836 
" clip-path="url(#p0def2b70fa)" style="fill: none; stroke: #b0b0b0; stroke-width: 0.8; stroke-linecap: square"/>
     </g>
     <g id="line2d_20">
      <defs>
       <path id="m62b47b9240" d="M 0 0 
L -3.5 0 
" style="stroke: #000000; stroke-width: 0.8"/>
      </defs>
      <g>
       <use xlink:href="#m62b47b9240" x="90" y="369.674836" style="stroke: #000000; stroke-width: 0.8"/>
      </g>
     </g>
     <g id="text_11">
      <!-- 0 -->
      <g transform="translate(76.6375 373.474055)scale(0.1 -0.1)">
       <use xlink:href="#DejaVuSans-30"/>
      </g>
     </g>
    </g>
    <g id="ytick_2">
     <g id="line2d_21">
      <path d="M 90 310.044893 
L 648 310.044893 
" clip-path="url(#p0def2b70fa)" style="fill: none; stroke: #b0b0b0; stroke-width: 0.8; stroke-linecap: square"/>
     </g>
     <g id="line2d_22">
      <g>
       <use xlink:href="#m62b47b9240" x="90" y="310.044893" style="stroke: #000000; stroke-width: 0.8"/>
      </g>
     </g>
     <g id="text_12">
      <!-- 10 -->
      <g transform="translate(70.275 313.844112)scale(0.1 -0.1)">
       <use xlink:href="#DejaVuSans-31"/>
       <use xlink:href="#DejaVuSans-30" x="63.623047"/>
      </g>
     </g>
    </g>
    <g id="ytick_3">
     <g id="line2d_23">
      <path d="M 90 250.41495 
L 648 250.41495 
" clip-path="url(#p0def2b70fa)" style="fill: none; stroke: #b0b0b0; stroke-width: 0.8; stroke-linecap: square"/>
     </g>
     <g id="line2d_24">
      <g>
       <use xlink:href="#m62b47b9240" x="90" y="250.41495" style="stroke: #000000; stroke-width: 0.8"/>
      </g>
     </g>
     <g id="text_13">
      <!-- 20 -->
      <g transform="translate(70.275 254.214169)scale(0.1 -0.1)">
       <use xlink:href="#DejaVuSans-32"/>
       <use xlink:href="#DejaVuSans-30" x="63.623047"/>
      </g>
     </g>
    </g>
    <g id="ytick_4">
     <g id="line2d_25">
      <path d="M 90 190.785007 
L 648 190.785007 
" clip-path="url(#p0def2b70fa)" style="fill: none; stroke: #b0b0b0; stroke-width: 0.8; stroke-linecap: square"/>
     </g>
     <g id="line2d_26">
      <g>
       <use xlink:href="#m62b47b9240" x="90" y="190.785007" style="stroke: #000000; stroke-width: 0.8"/>
      </g>
     </g>
     <g id="text_14">
      <!-- 30 -->
      <g transform="translate(70.275 194.584226)scale(0.1 -0.1)">
       <defs>
        <path id="DejaVuSans-33" d="M 2597 2516 
Q 3050 2419 3304 2112 
Q 3559 1806 3559 1356 
Q 3559 666 3084 287 
Q 2609 -91 1734 -91 
Q 1441 -91 1130 -33 
Q 819 25 488 141 
L 488 750 
Q 750 597 1062 519 
Q 1375 441 1716 441 
Q 2309 441 2620 675 
Q 2931 909 2931 1356 
Q 2931 1769 2642 2001 
Q 2353 2234 1838 2234 
L 1294 2234 
L 1294 2753 
L 1863 2753 
Q 2328 2753 2575 2939 
Q 2822 3125 2822 3475 
Q 2822 3834 2567 4026 
Q 2313 4219 1838 4219 
Q 1578 4219 1281 4162 
Q 984 4106 628 3988 
L 628 4550 
Q 988 4650 1302 4700 
Q 1616 4750 1894 4750 
Q 2613 4750 3031 4423 
Q 3450 4097 3450 3541 
Q 3450 3153 3228 2886 
Q 3006 2619 2597 2516 
z
" transform="scale(0.015625)"/>
       </defs>
       <use xlink:href="#DejaVuSans-33"/>
       <use xlink:href="#DejaVuSans-30" x="63.623047"/>
      </g>
     </g>
    </g>
    <g id="ytick_5">
     <g id="line2d_27">
      <path d="M 90 131.155065 
L 648 131.155065 
" clip-path="url(#p0def2b70fa)" style="fill: none; stroke: #b0b0b0; stroke-width: 0.8; stroke-linecap: square"/>
     </g>
     <g id="line2d_28">
      <g>
       <use xlink:href="#m62b47b9240" x="90" y="131.155065" style="stroke: #000000; stroke-width: 0.8"/>
      </g>
     </g>
     <g id="text_15">
      <!-- 40 -->
      <g transform="translate(70.275 134.954283)scale(0.1 -0.1)">
       <defs>
        <path id="DejaVuSans-34" d="M 2419 4116 
L 825 1625 
L 2419 1625 
L 2419 4116 
z
M 2253 4666 
L 3047 4666 
L 3047 1625 
L 3713 1625 
L 3713 1100 
L 3047 1100 
L 3047 0 
L 2419 0 
L 2419 1100 
L 313 1100 
L 313 1709 
L 2253 4666 
z
" transform="scale(0.015625)"/>
       </defs>
       <use xlink:href="#DejaVuSans-34"/>
       <use xlink:href="#DejaVuSans-30" x="63.623047"/>
      </g>
     </g>
    </g>
    <g id="ytick_6">
     <g id="line2d_29">
      <path d="M 90 71.525122 
L 648 71.525122 
" clip-path="url(#p0def2b70fa)" style="fill: none; stroke: #b0b0b0; stroke-width: 0.8; stroke-linecap: square"/>
     </g>
     <g id="line2d_30">
      <g>
       <use xlink:href="#m62b47b9240" x="90" y="71.525122" style="stroke: #000000; stroke-width: 0.8"/>
      </g>
     </g>
     <g id="text_16">
      <!-- 50 -->
      <g transform="translate(70.275 75.324341)scale(0.1 -0.1)">
       <use xlink:href="#DejaVuSans-35"/>
       <use xlink:href="#DejaVuSans-30" x="63.623047"/>
      </g>
     </g>
    </g>
    <g id="text_17">
     <!-- Accuracy -->
     <g transform="translate(64.195312 240.988125)rotate(-90)scale(0.1 -0.1)">
      <defs>
       <path id="DejaVuSans-41" d="M 2188 4044 
L 1331 1722 
L 3047 1722 
L 2188 4044 
z
M 1831 4666 
L 2547 4666 
L 4325 0 
L 3669 0 
L 3244 1197 
L 1141 1197 
L 716 0 
L 50 0 
L 1831 4666 
z
" transform="scale(0.015625)"/>
       <path id="DejaVuSans-75" d="M 544 1381 
L 544 3500 
L 1119 3500 
L 1119 1403 
Q 1119 906 1312 657 
Q 1506 409 1894 409 
Q 2359 409 2629 706 
Q 2900 1003 2900 1516 
L 2900 3500 
L 3475 3500 
L 3475 0 
L 2900 0 
L 2900 538 
Q 2691 219 2414 64 
Q 2138 -91 1772 -91 
Q 1169 -91 856 284 
Q 544 659 544 1381 
z
M 1991 3584 
L 1991 3584 
z
" transform="scale(0.015625)"/>
       <path id="DejaVuSans-72" d="M 2631 2963 
Q 2534 3019 2420 3045 
Q 2306 3072 2169 3072 
Q 1681 3072 1420 2755 
Q 1159 2438 1159 1844 
L 1159 0 
L 581 0 
L 581 3500 
L 1159 3500 
L 1159 2956 
Q 1341 3275 1631 3429 
Q 1922 3584 2338 3584 
Q 2397 3584 2469 3576 
Q 2541 3569 2628 3553 
L 2631 2963 
z
" transform="scale(0.015625)"/>
       <path id="DejaVuSans-61" d="M 2194 1759 
Q 1497 1759 1228 1600 
Q 959 1441 959 1056 
Q 959 750 1161 570 
Q 1363 391 1709 391 
Q 2188 391 2477 730 
Q 2766 1069 2766 1631 
L 2766 1759 
L 2194 1759 
z
M 3341 1997 
L 3341 0 
L 2766 0 
L 2766 531 
Q 2569 213 2275 61 
Q 1981 -91 1556 -91 
Q 1019 -91 701 211 
Q 384 513 384 1019 
Q 384 1609 779 1909 
Q 1175 2209 1959 2209 
L 2766 2209 
L 2766 2266 
Q 2766 2663 2505 2880 
Q 2244 3097 1772 3097 
Q 1472 3097 1187 3025 
Q 903 2953 641 2809 
L 641 3341 
Q 956 3463 1253 3523 
Q 1550 3584 1831 3584 
Q 2591 3584 2966 3190 
Q 3341 2797 3341 1997 
z
" transform="scale(0.015625)"/>
       <path id="DejaVuSans-79" d="M 2059 -325 
Q 1816 -950 1584 -1140 
Q 1353 -1331 966 -1331 
L 506 -1331 
L 506 -850 
L 844 -850 
Q 1081 -850 1212 -737 
Q 1344 -625 1503 -206 
L 1606 56 
L 191 3500 
L 800 3500 
L 1894 763 
L 2988 3500 
L 3597 3500 
L 2059 -325 
z
" transform="scale(0.015625)"/>
      </defs>
      <use xlink:href="#DejaVuSans-41"/>
      <use xlink:href="#DejaVuSans-63" x="66.658203"/>
      <use xlink:href="#DejaVuSans-63" x="121.638672"/>
      <use xlink:href="#DejaVuSans-75" x="176.619141"/>
      <use xlink:href="#DejaVuSans-72" x="239.998047"/>
      <use xlink:href="#DejaVuSans-61" x="281.111328"/>
      <use xlink:href="#DejaVuSans-63" x="342.390625"/>
      <use xlink:href="#DejaVuSans-79" x="397.371094"/>
     </g>
    </g>
   </g>
   <g id="line2d_31">
    <path d="M 115.363636 366.99873 
L 117.912746 357.238812 
L 120.461855 356.294305 
L 123.010964 333.153856 
L 125.560073 312.059841 
L 128.109182 336.144799 
L 130.658291 324.653284 
L 133.207401 328.90357 
L 135.75651 335.672545 
L 138.305619 322.449434 
L 140.854728 260.111902 
L 143.403837 258.222887 
L 145.952947 247.203617 
L 148.502056 271.918252 
L 151.051165 228.785721 
L 153.600274 219.655466 
L 156.149383 193.681499 
L 158.698492 234.295344 
L 161.247602 196.515027 
L 163.796711 174.47651 
L 166.34582 162.197897 
L 168.894929 217.451621 
L 171.444038 166.920428 
L 173.993148 279.946568 
L 176.542257 153.697314 
L 179.091366 162.670148 
L 181.640475 179.986134 
L 184.189584 160.781145 
L 186.738693 167.864953 
L 189.287803 230.045064 
L 191.836912 136.538761 
L 194.386021 141.103882 
L 196.93513 167.392702 
L 199.484239 148.974783 
L 202.033349 120.63955 
L 204.582458 120.482118 
L 207.131567 236.971451 
L 209.680676 143.622569 
L 212.229785 217.766451 
L 214.778894 125.204672 
L 217.328004 155.58634 
L 219.877113 141.261292 
L 222.426222 158.262436 
L 224.975331 150.076717 
L 227.52444 151.96572 
L 230.07355 151.178628 
L 232.622659 209.265879 
L 235.171768 194.468591 
L 237.720877 132.918141 
L 240.269986 132.760731 
L 242.819095 144.252252 
L 245.368205 141.103882 
L 247.917314 106.944185 
L 250.466423 114.027993 
L 253.015532 128.353019 
L 255.564641 130.242045 
L 258.113751 226.109614 
L 260.66286 108.990598 
L 263.211969 123.315646 
L 265.761078 106.786753 
L 268.310187 109.77769 
L 270.859296 124.574989 
L 273.408406 94.822982 
L 275.957515 108.990598 
L 278.506624 100.175196 
L 281.055733 102.851314 
L 283.604842 94.193321 
L 286.153952 115.916997 
L 288.703061 116.231838 
L 291.25217 117.648591 
L 293.801279 95.137823 
L 296.350388 115.602155 
L 298.899497 94.980414 
L 301.448607 90.415292 
L 303.997716 110.092532 
L 306.546825 116.861498 
L 309.095934 147.872849 
L 311.645043 258.852559 
L 314.194153 89.785609 
L 316.743262 81.914709 
L 319.292371 79.081181 
L 321.84148 163.772082 
L 324.390589 124.732399 
L 326.939698 99.702945 
L 329.488808 84.748236 
L 332.037917 90.572701 
L 334.587026 128.66786 
L 337.136135 84.590827 
L 339.685244 133.232982 
L 342.234354 128.195609 
L 344.783463 97.184259 
L 347.332572 97.971351 
L 349.881681 127.880768 
L 352.43079 112.611218 
L 354.979899 101.277129 
L 357.529009 154.169588 
L 360.078118 80.970207 
L 362.627227 93.87848 
L 365.176336 91.202384 
L 367.725445 98.758443 
L 370.274555 99.545535 
L 372.823664 94.035889 
L 375.372773 83.174052 
L 377.921882 87.739173 
L 380.470991 82.85921 
L 383.020101 98.286192 
L 385.56921 83.331484 
L 388.118319 88.054015 
L 390.667428 89.313358 
L 393.216537 104.425476 
L 395.765646 93.406229 
L 398.314756 94.508163 
L 400.863865 119.380207 
L 403.412974 93.87848 
L 405.962083 97.184259 
L 408.511192 110.407373 
L 411.060302 112.138967 
L 413.609411 81.914709 
L 416.15852 83.646303 
L 418.707629 85.85017 
L 421.256738 71.052871 
L 423.805847 93.091388 
L 426.354957 78.60893 
L 428.904066 80.183115 
L 431.453175 121.111801 
L 434.002284 86.952081 
L 436.551393 89.6282 
L 439.100503 79.238613 
L 441.649612 74.201217 
L 444.198721 99.230694 
L 446.74783 216.192278 
L 449.296939 84.748236 
L 451.846048 85.535329 
L 454.395158 118.120864 
L 456.944267 112.926059 
L 459.493376 92.776546 
L 462.042485 88.841107 
L 464.591594 95.610074 
L 467.140704 108.518347 
L 469.689813 139.372288 
L 472.238922 100.017786 
L 474.788031 96.712008 
L 477.33714 115.602155 
L 479.886249 75.303151 
L 482.435359 107.573845 
L 484.984468 83.331484 
L 487.533577 126.621425 
L 490.082686 90.887543 
L 492.631795 91.989454 
L 495.180905 72.469623 
L 497.730014 122.528554 
L 500.279123 71.682531 
L 502.828232 74.043808 
L 505.377341 82.072118 
L 507.92645 87.581764 
L 510.47556 74.043808 
L 513.024669 69.793528 
L 515.573778 84.590827 
L 518.122887 88.054015 
L 520.671996 75.303151 
L 523.221106 114.342812 
L 525.770215 92.461727 
L 528.319324 66.96 
L 530.868433 80.025705 
L 533.417542 80.812775 
L 535.966651 83.488893 
L 538.515761 84.118553 
L 541.06487 102.379063 
L 543.613979 77.034745 
L 546.163088 78.294088 
L 548.712197 70.58062 
L 551.261307 79.081181 
L 553.810416 80.025705 
L 556.359525 73.099306 
L 558.908634 76.090244 
L 561.457743 91.202384 
L 564.006852 77.349587 
L 566.555962 72.627056 
L 569.105071 78.60893 
L 571.65418 73.256716 
L 574.203289 82.22955 
L 579.301508 116.546679 
L 581.850617 95.610074 
L 584.399726 75.617993 
L 586.948835 70.58062 
L 589.497944 78.766339 
L 592.047053 86.164989 
L 594.596163 73.886399 
L 597.145272 76.877336 
L 599.694381 75.303151 
L 602.24349 81.285048 
L 604.792599 92.776546 
L 607.341709 82.072118 
L 609.890818 93.248797 
L 612.439927 82.22955 
L 614.989036 84.590827 
L 617.538145 91.989454 
L 620.087254 71.367712 
L 622.636364 73.571557 
L 622.636364 73.571557 
" clip-path="url(#p0def2b70fa)" style="fill: none; stroke: #1f77b4; stroke-width: 1.5; stroke-linecap: square"/>
   </g>
   <g id="line2d_32">
    <path d="M 115.363636 368.887746 
L 117.912746 367.628402 
L 120.461855 365.581968 
L 123.010964 365.267132 
L 125.560073 360.544591 
L 128.109182 361.174263 
L 130.658291 359.600083 
L 133.207401 355.979469 
L 135.75651 362.118771 
L 138.305619 352.358855 
L 140.854728 350.155003 
L 143.403837 345.904717 
L 145.952947 334.098366 
L 148.502056 342.756356 
L 151.051165 332.681602 
L 153.600274 344.645371 
L 156.149383 340.080249 
L 158.698492 304.503776 
L 161.247602 321.19009 
L 163.796711 318.986234 
L 166.34582 307.337304 
L 168.894929 342.44152 
L 171.444038 307.337304 
L 173.993148 309.698576 
L 176.542257 309.855991 
L 179.091366 294.11419 
L 181.640475 326.857137 
L 184.189584 293.641939 
L 186.738693 293.169682 
L 189.287803 304.031526 
L 191.836912 326.69972 
L 194.386021 310.800498 
L 196.93513 334.57062 
L 199.484239 335.987381 
L 202.033349 299.623819 
L 204.582458 303.71669 
L 207.131567 288.132304 
L 209.680676 281.835588 
L 212.229785 294.11419 
L 214.778894 288.132304 
L 217.328004 306.077961 
L 222.426222 286.085874 
L 224.975331 285.456197 
L 227.52444 275.224031 
L 230.07355 302.929598 
L 232.622659 305.92054 
L 235.171768 279.00206 
L 237.720877 304.188941 
L 240.269986 303.244433 
L 242.819095 276.955625 
L 245.368205 268.455053 
L 247.917314 261.843496 
L 250.466423 307.494719 
L 253.015532 314.106277 
L 255.564641 286.715546 
L 258.113751 321.662341 
L 260.66286 271.13116 
L 263.211969 298.207061 
L 265.761078 281.835588 
L 268.310187 252.870673 
L 270.859296 299.151568 
L 273.408406 270.186647 
L 275.957515 251.92616 
L 278.506624 245.472023 
L 281.055733 280.261404 
L 283.604842 265.936367 
L 286.153952 266.88088 
L 288.703061 261.371245 
L 291.25217 250.981658 
L 293.801279 282.622675 
L 296.350388 281.520747 
L 298.899497 245.472023 
L 301.448607 271.288581 
L 303.997716 272.705345 
L 306.546825 271.760832 
L 309.095934 277.427882 
L 311.645043 263.102839 
L 314.194153 258.065466 
L 316.743262 258.065466 
L 319.292371 276.955625 
L 321.84148 258.065466 
L 324.390589 286.40071 
L 326.939698 275.696282 
L 329.488808 245.944274 
L 332.037917 254.130016 
L 334.587026 253.657765 
L 337.136135 255.231938 
L 339.685244 236.814031 
L 342.234354 249.250053 
L 344.783463 256.963544 
L 347.332572 272.390503 
L 349.881681 284.66911 
L 352.43079 247.518459 
L 354.979899 235.712108 
L 357.529009 262.315747 
L 360.078118 256.019031 
L 362.627227 256.806123 
L 365.176336 250.981658 
L 367.725445 264.204773 
L 370.274555 225.794772 
L 372.823664 242.166245 
L 375.372773 240.27723 
L 377.921882 253.185503 
L 380.470991 243.425588 
L 383.020101 244.370101 
L 385.56921 264.834444 
L 388.118319 259.167389 
L 390.667428 227.211536 
L 393.216537 229.572802 
L 395.765646 234.610186 
L 398.314756 232.40633 
L 400.863865 274.279524 
L 403.412974 212.256828 
L 405.962083 249.250053 
L 408.511192 245.944274 
L 411.060302 236.656621 
L 413.609411 236.4992 
L 416.15852 239.175308 
L 418.707629 260.269322 
L 421.256738 278.687225 
L 423.805847 246.573946 
L 426.354957 239.647558 
L 428.904066 235.239857 
L 431.453175 242.638496 
L 434.002284 238.388215 
L 436.551393 223.433507 
L 439.100503 256.491282 
L 441.649612 221.701901 
L 444.198721 236.814031 
L 446.74783 244.527522 
L 449.296939 262.000916 
L 451.846048 232.87858 
L 454.395158 230.989566 
L 456.944267 226.581865 
L 459.493376 244.370101 
L 462.042485 251.92616 
L 464.591594 239.332717 
L 467.140704 231.461816 
L 469.689813 218.238713 
L 472.238922 223.433507 
L 474.788031 219.340636 
L 477.33714 239.332717 
L 479.886249 214.932935 
L 482.435359 204.228506 
L 484.984468 231.776658 
L 487.533577 219.340636 
L 490.082686 202.496912 
L 492.631795 227.998628 
L 495.180905 244.21268 
L 497.730014 231.619237 
L 500.279123 233.508252 
L 502.828232 226.896695 
L 505.377341 209.580721 
L 507.92645 220.91482 
L 510.47556 181.560307 
L 513.024669 225.00768 
L 515.573778 217.923872 
L 518.122887 223.276086 
L 520.671996 213.35875 
L 523.221106 214.775514 
L 525.770215 232.56375 
L 528.319324 207.062034 
L 530.868433 213.673592 
L 533.417542 214.618093 
L 535.966651 239.332717 
L 538.515761 209.895551 
L 541.06487 208.163957 
L 546.163088 214.303263 
L 548.712197 221.859322 
L 551.261307 234.925016 
L 553.810416 216.034857 
L 556.359525 198.404042 
L 558.908634 197.144698 
L 561.457743 210.052971 
L 564.006852 207.691706 
L 566.555962 213.201329 
L 569.105071 222.174164 
L 571.65418 234.452765 
L 574.203289 228.313459 
L 576.752398 216.664529 
L 579.301508 213.988422 
L 584.399726 249.250053 
L 586.948835 232.721171 
L 589.497944 231.146986 
L 592.047053 216.664529 
L 594.596163 201.080149 
L 597.145272 241.064322 
L 599.694381 210.525222 
L 602.24349 212.414237 
L 604.792599 202.339492 
L 607.341709 201.237558 
L 609.890818 214.932935 
L 612.439927 200.765307 
L 614.989036 192.264735 
L 617.538145 209.895551 
L 620.087254 200.450477 
L 622.636364 208.321377 
L 622.636364 208.321377 
" clip-path="url(#p0def2b70fa)" style="fill: none; stroke: #ff7f0e; stroke-width: 1.5; stroke-linecap: square"/>
   </g>
   <g id="line2d_33">
    <path d="M 115.363636 369.045164 
L 117.912746 368.57291 
L 120.461855 366.526476 
L 123.010964 366.683894 
L 125.560073 367.470984 
L 128.109182 367.156148 
L 130.658291 366.054222 
L 133.207401 359.442665 
L 135.75651 361.489099 
L 138.305619 361.803936 
L 140.854728 362.905862 
L 143.403837 353.775617 
L 145.952947 360.229755 
L 148.502056 364.322624 
L 151.051165 347.951151 
L 153.600274 365.109714 
L 156.149383 355.664633 
L 158.698492 357.711068 
L 161.247602 349.367912 
L 163.796711 349.52533 
L 166.34582 357.238812 
L 168.894929 356.136887 
L 171.444038 344.173117 
L 173.993148 361.803936 
L 176.542257 354.720125 
L 179.091366 355.979469 
L 181.640475 349.840167 
L 184.189584 355.979469 
L 186.738693 357.081395 
L 189.287803 345.117627 
L 191.836912 354.090453 
L 194.386021 367.78582 
L 196.93513 344.96021 
L 199.484239 349.52533 
L 202.033349 356.923977 
L 204.582458 355.349798 
L 207.131567 352.201437 
L 209.680676 344.802789 
L 212.229785 335.515127 
L 214.778894 362.118771 
L 217.328004 322.764269 
L 219.877113 347.478896 
L 222.426222 364.165205 
L 224.975331 329.060988 
L 227.52444 343.858281 
L 230.07355 338.033816 
L 232.622659 354.090453 
L 235.171768 324.18103 
L 237.720877 358.025903 
L 240.269986 339.450578 
L 242.819095 319.930742 
L 245.368205 343.386028 
L 247.917314 352.201437 
L 250.466423 331.737095 
L 253.015532 332.681602 
L 255.564641 335.042874 
L 258.113751 341.339595 
L 260.66286 312.532098 
L 263.211969 332.366767 
L 265.761078 344.487953 
L 268.310187 331.737095 
L 270.859296 312.846933 
L 273.408406 348.265987 
L 275.957515 311.745005 
L 278.506624 315.837876 
L 281.055733 323.708777 
L 283.604842 346.219553 
L 286.153952 359.127829 
L 288.703061 320.402998 
L 291.25217 353.775617 
L 293.801279 348.580823 
L 296.350388 325.597791 
L 298.899497 321.97718 
L 301.448607 350.469839 
L 303.997716 322.606851 
L 306.546825 352.516273 
L 309.095934 351.886601 
L 311.645043 350.155003 
L 314.194153 316.939804 
L 316.743262 317.412055 
L 319.292371 306.392797 
L 321.84148 349.52533 
L 324.390589 323.393941 
L 326.939698 345.432463 
L 329.488808 316.782384 
L 332.037917 334.413202 
L 334.587026 330.320334 
L 337.136135 351.256928 
L 339.685244 342.126685 
L 342.234354 344.015699 
L 344.783463 309.226319 
L 347.332572 334.885456 
L 349.881681 354.247871 
L 352.43079 326.69972 
L 354.979899 333.940948 
L 357.529009 323.393941 
L 360.078118 317.412055 
L 362.627227 306.707633 
L 365.176336 326.227466 
L 367.725445 352.673691 
L 370.274555 298.994147 
L 372.823664 329.218406 
L 375.372773 306.392797 
L 377.921882 296.947712 
L 380.470991 355.664633 
L 383.020101 322.134598 
L 385.56921 348.895658 
L 388.118319 343.386028 
L 390.667428 312.846933 
L 393.216537 337.089306 
L 395.765646 339.29316 
L 398.314756 330.320334 
L 400.863865 303.71669 
L 403.412974 346.376971 
L 405.962083 302.772182 
L 408.511192 314.106277 
L 411.060302 301.040583 
L 413.609411 297.577389 
L 416.15852 284.826525 
L 418.707629 300.410911 
L 421.256738 299.151568 
L 423.805847 308.124391 
L 426.354957 306.077961 
L 428.904066 309.068904 
L 431.453175 344.96021 
L 434.002284 312.374683 
L 436.551393 331.737095 
L 439.100503 317.726891 
L 441.649612 348.423405 
L 444.198721 316.939804 
L 446.74783 326.227466 
L 449.296939 281.205911 
L 451.846048 311.745005 
L 454.395158 289.706489 
L 456.944267 327.171973 
L 459.493376 308.754068 
L 462.042485 288.604561 
L 464.591594 305.133454 
L 467.140704 324.96812 
L 469.689813 346.219553 
L 472.238922 345.747299 
L 474.788031 319.615906 
L 477.33714 317.097219 
L 479.886249 329.533242 
L 482.435359 329.218406 
L 484.984468 297.419968 
L 487.533577 333.153856 
L 490.082686 294.901282 
L 492.631795 301.040583 
L 495.180905 341.811849 
L 497.730014 283.724603 
L 500.279123 332.366767 
L 502.828232 300.725747 
L 505.377341 311.43017 
L 507.92645 328.746152 
L 510.47556 315.52304 
L 513.024669 277.270461 
L 515.573778 333.626113 
L 518.122887 326.857137 
L 520.671996 272.862754 
L 523.221106 343.858281 
L 525.770215 296.003204 
L 528.319324 301.040583 
L 530.868433 312.532098 
L 533.417542 297.262553 
L 535.966651 312.689518 
L 538.515761 300.096075 
L 541.06487 276.483374 
L 543.613979 324.338448 
L 546.163088 289.863904 
L 548.712197 293.012262 
L 551.261307 278.52981 
L 553.810416 303.559269 
L 556.359525 313.791441 
L 558.908634 303.559269 
L 561.457743 296.31804 
L 564.006852 325.440374 
L 566.555962 314.578533 
L 569.105071 314.263697 
L 571.65418 299.466404 
L 574.203289 310.957919 
L 576.752398 288.919396 
L 579.301508 290.17874 
L 581.850617 343.071192 
L 584.399726 320.717834 
L 586.948835 317.412055 
L 589.497944 295.688369 
L 592.047053 294.901282 
L 594.596163 330.63517 
L 597.145272 302.614762 
L 599.694381 290.021324 
L 602.24349 285.456197 
L 604.792599 332.83902 
L 607.341709 304.031526 
L 609.890818 289.706489 
L 612.439927 339.450578 
L 614.989036 310.957919 
L 617.538145 332.996438 
L 620.087254 299.466404 
L 622.636364 327.329391 
L 622.636364 327.329391 
" clip-path="url(#p0def2b70fa)" style="fill: none; stroke: #2ca02c; stroke-width: 1.5; stroke-linecap: square"/>
   </g>
   <g id="line2d_34">
    <path d="M 115.363636 369.36 
L 117.912746 368.258074 
L 120.461855 368.887746 
L 123.010964 368.887746 
L 125.560073 369.045164 
L 128.109182 369.36 
L 130.658291 368.887746 
L 133.207401 369.36 
L 135.75651 368.415492 
L 138.305619 367.628402 
L 140.854728 368.57291 
L 143.403837 367.943238 
L 145.952947 367.156148 
L 148.502056 367.313566 
L 151.051165 368.100656 
L 153.600274 368.100656 
L 156.149383 366.526476 
L 158.698492 364.794878 
L 161.247602 365.739386 
L 163.796711 363.85037 
L 166.34582 365.581968 
L 168.894929 365.267132 
L 171.444038 365.109714 
L 173.993148 363.220697 
L 176.542257 362.591026 
L 179.091366 362.905862 
L 181.640475 363.535534 
L 184.189584 358.970411 
L 186.738693 362.591026 
L 189.287803 362.591026 
L 191.836912 361.174263 
L 194.386021 357.55365 
L 196.93513 356.923977 
L 199.484239 358.340739 
L 202.033349 358.812993 
L 204.582458 357.711068 
L 207.131567 354.720125 
L 209.680676 355.979469 
L 212.229785 362.748444 
L 214.778894 355.664633 
L 217.328004 356.136887 
L 219.877113 351.729183 
L 222.426222 353.618199 
L 224.975331 350.469839 
L 230.07355 351.09951 
L 232.622659 360.387173 
L 235.171768 356.923977 
L 237.720877 353.775617 
L 240.269986 352.516273 
L 242.819095 348.73824 
L 245.368205 342.913774 
L 247.917314 345.589881 
L 250.466423 348.73824 
L 253.015532 339.450578 
L 255.564641 346.691806 
L 258.113751 343.386028 
L 260.66286 343.22861 
L 263.211969 344.96021 
L 265.761078 351.886601 
L 268.310187 335.357709 
L 270.859296 343.386028 
L 273.408406 341.811849 
L 275.957515 341.497013 
L 278.506624 334.57062 
L 281.055733 343.700864 
L 283.604842 334.885456 
L 286.153952 341.497013 
L 288.703061 339.450578 
L 291.25217 335.987381 
L 293.801279 340.080249 
L 296.350388 340.237667 
L 298.899497 337.089306 
L 301.448607 339.29316 
L 303.997716 338.820906 
L 306.546825 338.50607 
L 309.095934 343.858281 
L 311.645043 339.922831 
L 314.194153 334.885456 
L 316.743262 335.200292 
L 319.292371 327.486809 
L 321.84148 328.746152 
L 324.390589 331.737095 
L 326.939698 336.302217 
L 329.488808 337.246727 
L 332.037917 331.264841 
L 334.587026 330.950006 
L 337.136135 318.671398 
L 339.685244 329.218406 
L 342.234354 332.83902 
L 344.783463 330.792588 
L 347.332572 325.91263 
L 349.881681 330.320334 
L 352.43079 327.801645 
L 354.979899 329.84808 
L 357.529009 330.477752 
L 360.078118 337.246727 
L 365.176336 325.91263 
L 367.725445 336.459635 
L 370.274555 319.143655 
L 372.823664 318.671398 
L 375.372773 315.050784 
L 377.921882 325.91263 
L 380.470991 321.19009 
L 383.020101 318.356563 
L 385.56921 322.606851 
L 388.118319 319.773326 
L 390.667428 310.800498 
L 393.216537 318.356563 
L 395.765646 323.236523 
L 398.314756 306.865048 
L 400.863865 316.152712 
L 403.412974 316.467548 
L 405.962083 327.644227 
L 408.511192 318.513983 
L 411.060302 322.292016 
L 413.609411 320.402998 
L 416.15852 324.653284 
L 418.707629 318.828819 
L 421.256738 312.059841 
L 423.805847 329.218406 
L 426.354957 314.578533 
L 428.904066 311.115334 
L 431.453175 315.050784 
L 434.002284 313.948862 
L 436.551393 307.966976 
L 439.100503 313.476605 
L 441.649612 312.059841 
L 444.198721 320.402998 
L 446.74783 316.782384 
L 449.296939 314.893369 
L 451.846048 316.152712 
L 456.944267 308.911483 
L 459.493376 312.059841 
L 462.042485 313.791441 
L 464.591594 321.03267 
L 467.140704 315.995291 
L 469.689813 311.58759 
L 472.238922 307.494719 
L 474.788031 312.059841 
L 477.33714 307.494719 
L 479.886249 303.244433 
L 482.435359 310.957919 
L 484.984468 307.022468 
L 487.533577 323.866195 
L 490.082686 315.050784 
L 492.631795 306.707633 
L 495.180905 314.263697 
L 497.730014 298.994147 
L 500.279123 301.827675 
L 502.828232 310.643083 
L 505.377341 307.022468 
L 507.92645 307.966976 
L 510.47556 309.38374 
L 513.024669 312.689518 
L 515.573778 301.040583 
L 518.122887 305.133454 
L 520.671996 299.623819 
L 523.221106 301.198004 
L 525.770215 303.401854 
L 528.319324 301.827675 
L 530.868433 308.439227 
L 533.417542 298.994147 
L 535.966651 301.827675 
L 538.515761 297.577389 
L 541.06487 293.799354 
L 543.613979 304.661197 
L 546.163088 299.938655 
L 548.712197 305.605705 
L 551.261307 296.475461 
L 553.810416 297.892225 
L 556.359525 299.78124 
L 558.908634 303.401854 
L 561.457743 300.410911 
L 564.006852 304.031526 
L 566.555962 302.299926 
L 569.105071 298.679312 
L 571.65418 301.040583 
L 574.203289 299.623819 
L 576.752398 301.670254 
L 579.301508 296.31804 
L 581.850617 297.262553 
L 584.399726 297.734804 
L 586.948835 300.410911 
L 589.497944 307.494719 
L 592.047053 303.71669 
L 594.596163 310.957919 
L 597.145272 309.855991 
L 599.694381 301.98509 
L 602.24349 297.419968 
L 604.792599 296.160625 
L 607.341709 299.151568 
L 609.890818 309.38374 
L 612.439927 299.151568 
L 614.989036 295.530954 
L 617.538145 301.670254 
L 620.087254 294.743861 
L 622.636364 305.290869 
L 622.636364 305.290869 
" clip-path="url(#p0def2b70fa)" style="fill: none; stroke: #d62728; stroke-width: 1.5; stroke-linecap: square"/>
   </g>
   <g id="patch_3">
    <path d="M 90 384.48 
L 90 51.84 
" style="fill: none; stroke: #000000; stroke-width: 0.8; stroke-linejoin: miter; stroke-linecap: square"/>
   </g>
   <g id="patch_4">
    <path d="M 648 384.48 
L 648 51.84 
" style="fill: none; stroke: #000000; stroke-width: 0.8; stroke-linejoin: miter; stroke-linecap: square"/>
   </g>
   <g id="patch_5">
    <path d="M 90 384.48 
L 648 384.48 
" style="fill: none; stroke: #000000; stroke-width: 0.8; stroke-linejoin: miter; stroke-linecap: square"/>
   </g>
   <g id="patch_6">
    <path d="M 90 51.84 
L 648 51.84 
" style="fill: none; stroke: #000000; stroke-width: 0.8; stroke-linejoin: miter; stroke-linecap: square"/>
   </g>
   <g id="text_18">
    <!-- Model Accuracy -->
    <g transform="translate(321.683438 45.84)scale(0.12 -0.12)">
     <defs>
      <path id="DejaVuSans-4d" d="M 628 4666 
L 1569 4666 
L 2759 1491 
L 3956 4666 
L 4897 4666 
L 4897 0 
L 4281 0 
L 4281 4097 
L 3078 897 
L 2444 897 
L 1241 4097 
L 1241 0 
L 628 0 
L 628 4666 
z
" transform="scale(0.015625)"/>
      <path id="DejaVuSans-64" d="M 2906 2969 
L 2906 4863 
L 3481 4863 
L 3481 0 
L 2906 0 
L 2906 525 
Q 2725 213 2448 61 
Q 2172 -91 1784 -91 
Q 1150 -91 751 415 
Q 353 922 353 1747 
Q 353 2572 751 3078 
Q 1150 3584 1784 3584 
Q 2172 3584 2448 3432 
Q 2725 3281 2906 2969 
z
M 947 1747 
Q 947 1113 1208 752 
Q 1469 391 1925 391 
Q 2381 391 2643 752 
Q 2906 1113 2906 1747 
Q 2906 2381 2643 2742 
Q 2381 3103 1925 3103 
Q 1469 3103 1208 2742 
Q 947 2381 947 1747 
z
" transform="scale(0.015625)"/>
      <path id="DejaVuSans-65" d="M 3597 1894 
L 3597 1613 
L 953 1613 
Q 991 1019 1311 708 
Q 1631 397 2203 397 
Q 2534 397 2845 478 
Q 3156 559 3463 722 
L 3463 178 
Q 3153 47 2828 -22 
Q 2503 -91 2169 -91 
Q 1331 -91 842 396 
Q 353 884 353 1716 
Q 353 2575 817 3079 
Q 1281 3584 2069 3584 
Q 2775 3584 3186 3129 
Q 3597 2675 3597 1894 
z
M 3022 2063 
Q 3016 2534 2758 2815 
Q 2500 3097 2075 3097 
Q 1594 3097 1305 2825 
Q 1016 2553 972 2059 
L 3022 2063 
z
" transform="scale(0.015625)"/>
      <path id="DejaVuSans-6c" d="M 603 4863 
L 1178 4863 
L 1178 0 
L 603 0 
L 603 4863 
z
" transform="scale(0.015625)"/>
      <path id="DejaVuSans-20" transform="scale(0.015625)"/>
     </defs>
     <use xlink:href="#DejaVuSans-4d"/>
     <use xlink:href="#DejaVuSans-6f" x="86.279297"/>
     <use xlink:href="#DejaVuSans-64" x="147.460938"/>
     <use xlink:href="#DejaVuSans-65" x="210.9375"/>
     <use xlink:href="#DejaVuSans-6c" x="272.460938"/>
     <use xlink:href="#DejaVuSans-20" x="300.244141"/>
     <use xlink:href="#DejaVuSans-41" x="332.03125"/>
     <use xlink:href="#DejaVuSans-63" x="398.689453"/>
     <use xlink:href="#DejaVuSans-63" x="453.669922"/>
     <use xlink:href="#DejaVuSans-75" x="508.650391"/>
     <use xlink:href="#DejaVuSans-72" x="572.029297"/>
     <use xlink:href="#DejaVuSans-61" x="613.142578"/>
     <use xlink:href="#DejaVuSans-63" x="674.421875"/>
     <use xlink:href="#DejaVuSans-79" x="729.402344"/>
    </g>
   </g>
   <g id="legend_1">
    <g id="patch_7">
     <path d="M 97 118.5525 
L 213.639063 118.5525 
Q 215.639063 118.5525 215.639063 116.5525 
L 215.639063 58.84 
Q 215.639063 56.84 213.639063 56.84 
L 97 56.84 
Q 95 56.84 95 58.84 
L 95 116.5525 
Q 95 118.5525 97 118.5525 
z
" style="fill: #ffffff; opacity: 0.8; stroke: #cccccc; stroke-linejoin: miter"/>
    </g>
    <g id="line2d_35">
     <path d="M 99 64.938438 
L 109 64.938438 
L 119 64.938438 
" style="fill: none; stroke: #1f77b4; stroke-width: 1.5; stroke-linecap: square"/>
    </g>
    <g id="text_19">
     <!-- CNN-LSTM -->
     <g transform="translate(127 68.438438)scale(0.1 -0.1)">
      <defs>
       <path id="DejaVuSans-43" d="M 4122 4306 
L 4122 3641 
Q 3803 3938 3442 4084 
Q 3081 4231 2675 4231 
Q 1875 4231 1450 3742 
Q 1025 3253 1025 2328 
Q 1025 1406 1450 917 
Q 1875 428 2675 428 
Q 3081 428 3442 575 
Q 3803 722 4122 1019 
L 4122 359 
Q 3791 134 3420 21 
Q 3050 -91 2638 -91 
Q 1578 -91 968 557 
Q 359 1206 359 2328 
Q 359 3453 968 4101 
Q 1578 4750 2638 4750 
Q 3056 4750 3426 4639 
Q 3797 4528 4122 4306 
z
" transform="scale(0.015625)"/>
       <path id="DejaVuSans-4e" d="M 628 4666 
L 1478 4666 
L 3547 763 
L 3547 4666 
L 4159 4666 
L 4159 0 
L 3309 0 
L 1241 3903 
L 1241 0 
L 628 0 
L 628 4666 
z
" transform="scale(0.015625)"/>
       <path id="DejaVuSans-2d" d="M 313 2009 
L 1997 2009 
L 1997 1497 
L 313 1497 
L 313 2009 
z
" transform="scale(0.015625)"/>
       <path id="DejaVuSans-4c" d="M 628 4666 
L 1259 4666 
L 1259 531 
L 3531 531 
L 3531 0 
L 628 0 
L 628 4666 
z
" transform="scale(0.015625)"/>
       <path id="DejaVuSans-53" d="M 3425 4513 
L 3425 3897 
Q 3066 4069 2747 4153 
Q 2428 4238 2131 4238 
Q 1616 4238 1336 4038 
Q 1056 3838 1056 3469 
Q 1056 3159 1242 3001 
Q 1428 2844 1947 2747 
L 2328 2669 
Q 3034 2534 3370 2195 
Q 3706 1856 3706 1288 
Q 3706 609 3251 259 
Q 2797 -91 1919 -91 
Q 1588 -91 1214 -16 
Q 841 59 441 206 
L 441 856 
Q 825 641 1194 531 
Q 1563 422 1919 422 
Q 2459 422 2753 634 
Q 3047 847 3047 1241 
Q 3047 1584 2836 1778 
Q 2625 1972 2144 2069 
L 1759 2144 
Q 1053 2284 737 2584 
Q 422 2884 422 3419 
Q 422 4038 858 4394 
Q 1294 4750 2059 4750 
Q 2388 4750 2728 4690 
Q 3069 4631 3425 4513 
z
" transform="scale(0.015625)"/>
       <path id="DejaVuSans-54" d="M -19 4666 
L 3928 4666 
L 3928 4134 
L 2272 4134 
L 2272 0 
L 1638 0 
L 1638 4134 
L -19 4134 
L -19 4666 
z
" transform="scale(0.015625)"/>
      </defs>
      <use xlink:href="#DejaVuSans-43"/>
      <use xlink:href="#DejaVuSans-4e" x="69.824219"/>
      <use xlink:href="#DejaVuSans-4e" x="144.628906"/>
      <use xlink:href="#DejaVuSans-2d" x="219.433594"/>
      <use xlink:href="#DejaVuSans-4c" x="255.517578"/>
      <use xlink:href="#DejaVuSans-53" x="311.230469"/>
      <use xlink:href="#DejaVuSans-54" x="374.707031"/>
      <use xlink:href="#DejaVuSans-4d" x="435.791016"/>
     </g>
    </g>
    <g id="line2d_36">
     <path d="M 99 79.616563 
L 109 79.616563 
L 119 79.616563 
" style="fill: none; stroke: #ff7f0e; stroke-width: 1.5; stroke-linecap: square"/>
    </g>
    <g id="text_20">
     <!-- CNN-Transformer -->
     <g transform="translate(127 83.116563)scale(0.1 -0.1)">
      <defs>
       <path id="DejaVuSans-6e" d="M 3513 2113 
L 3513 0 
L 2938 0 
L 2938 2094 
Q 2938 2591 2744 2837 
Q 2550 3084 2163 3084 
Q 1697 3084 1428 2787 
Q 1159 2491 1159 1978 
L 1159 0 
L 581 0 
L 581 3500 
L 1159 3500 
L 1159 2956 
Q 1366 3272 1645 3428 
Q 1925 3584 2291 3584 
Q 2894 3584 3203 3211 
Q 3513 2838 3513 2113 
z
" transform="scale(0.015625)"/>
       <path id="DejaVuSans-73" d="M 2834 3397 
L 2834 2853 
Q 2591 2978 2328 3040 
Q 2066 3103 1784 3103 
Q 1356 3103 1142 2972 
Q 928 2841 928 2578 
Q 928 2378 1081 2264 
Q 1234 2150 1697 2047 
L 1894 2003 
Q 2506 1872 2764 1633 
Q 3022 1394 3022 966 
Q 3022 478 2636 193 
Q 2250 -91 1575 -91 
Q 1294 -91 989 -36 
Q 684 19 347 128 
L 347 722 
Q 666 556 975 473 
Q 1284 391 1588 391 
Q 1994 391 2212 530 
Q 2431 669 2431 922 
Q 2431 1156 2273 1281 
Q 2116 1406 1581 1522 
L 1381 1569 
Q 847 1681 609 1914 
Q 372 2147 372 2553 
Q 372 3047 722 3315 
Q 1072 3584 1716 3584 
Q 2034 3584 2315 3537 
Q 2597 3491 2834 3397 
z
" transform="scale(0.015625)"/>
       <path id="DejaVuSans-66" d="M 2375 4863 
L 2375 4384 
L 1825 4384 
Q 1516 4384 1395 4259 
Q 1275 4134 1275 3809 
L 1275 3500 
L 2222 3500 
L 2222 3053 
L 1275 3053 
L 1275 0 
L 697 0 
L 697 3053 
L 147 3053 
L 147 3500 
L 697 3500 
L 697 3744 
Q 697 4328 969 4595 
Q 1241 4863 1831 4863 
L 2375 4863 
z
" transform="scale(0.015625)"/>
       <path id="DejaVuSans-6d" d="M 3328 2828 
Q 3544 3216 3844 3400 
Q 4144 3584 4550 3584 
Q 5097 3584 5394 3201 
Q 5691 2819 5691 2113 
L 5691 0 
L 5113 0 
L 5113 2094 
Q 5113 2597 4934 2840 
Q 4756 3084 4391 3084 
Q 3944 3084 3684 2787 
Q 3425 2491 3425 1978 
L 3425 0 
L 2847 0 
L 2847 2094 
Q 2847 2600 2669 2842 
Q 2491 3084 2119 3084 
Q 1678 3084 1418 2786 
Q 1159 2488 1159 1978 
L 1159 0 
L 581 0 
L 581 3500 
L 1159 3500 
L 1159 2956 
Q 1356 3278 1631 3431 
Q 1906 3584 2284 3584 
Q 2666 3584 2933 3390 
Q 3200 3197 3328 2828 
z
" transform="scale(0.015625)"/>
      </defs>
      <use xlink:href="#DejaVuSans-43"/>
      <use xlink:href="#DejaVuSans-4e" x="69.824219"/>
      <use xlink:href="#DejaVuSans-4e" x="144.628906"/>
      <use xlink:href="#DejaVuSans-2d" x="219.433594"/>
      <use xlink:href="#DejaVuSans-54" x="246.392578"/>
      <use xlink:href="#DejaVuSans-72" x="292.726562"/>
      <use xlink:href="#DejaVuSans-61" x="333.839844"/>
      <use xlink:href="#DejaVuSans-6e" x="395.119141"/>
      <use xlink:href="#DejaVuSans-73" x="458.498047"/>
      <use xlink:href="#DejaVuSans-66" x="510.597656"/>
      <use xlink:href="#DejaVuSans-6f" x="545.802734"/>
      <use xlink:href="#DejaVuSans-72" x="606.984375"/>
      <use xlink:href="#DejaVuSans-6d" x="646.347656"/>
      <use xlink:href="#DejaVuSans-65" x="743.759766"/>
      <use xlink:href="#DejaVuSans-72" x="805.283203"/>
     </g>
    </g>
    <g id="line2d_37">
     <path d="M 99 94.294688 
L 109 94.294688 
L 119 94.294688 
" style="fill: none; stroke: #2ca02c; stroke-width: 1.5; stroke-linecap: square"/>
    </g>
    <g id="text_21">
     <!-- Conv1D -->
     <g transform="translate(127 97.794688)scale(0.1 -0.1)">
      <defs>
       <path id="DejaVuSans-76" d="M 191 3500 
L 800 3500 
L 1894 563 
L 2988 3500 
L 3597 3500 
L 2284 0 
L 1503 0 
L 191 3500 
z
" transform="scale(0.015625)"/>
       <path id="DejaVuSans-44" d="M 1259 4147 
L 1259 519 
L 2022 519 
Q 2988 519 3436 956 
Q 3884 1394 3884 2338 
Q 3884 3275 3436 3711 
Q 2988 4147 2022 4147 
L 1259 4147 
z
M 628 4666 
L 1925 4666 
Q 3281 4666 3915 4102 
Q 4550 3538 4550 2338 
Q 4550 1131 3912 565 
Q 3275 0 1925 0 
L 628 0 
L 628 4666 
z
" transform="scale(0.015625)"/>
      </defs>
      <use xlink:href="#DejaVuSans-43"/>
      <use xlink:href="#DejaVuSans-6f" x="69.824219"/>
      <use xlink:href="#DejaVuSans-6e" x="131.005859"/>
      <use xlink:href="#DejaVuSans-76" x="194.384766"/>
      <use xlink:href="#DejaVuSans-31" x="253.564453"/>
      <use xlink:href="#DejaVuSans-44" x="317.1875"/>
     </g>
    </g>
    <g id="line2d_38">
     <path d="M 99 108.972813 
L 109 108.972813 
L 119 108.972813 
" style="fill: none; stroke: #d62728; stroke-width: 1.5; stroke-linecap: square"/>
    </g>
    <g id="text_22">
     <!-- MLP -->
     <g transform="translate(127 112.472813)scale(0.1 -0.1)">
      <defs>
       <path id="DejaVuSans-50" d="M 1259 4147 
L 1259 2394 
L 2053 2394 
Q 2494 2394 2734 2622 
Q 2975 2850 2975 3272 
Q 2975 3691 2734 3919 
Q 2494 4147 2053 4147 
L 1259 4147 
z
M 628 4666 
L 2053 4666 
Q 2838 4666 3239 4311 
Q 3641 3956 3641 3272 
Q 3641 2581 3239 2228 
Q 2838 1875 2053 1875 
L 1259 1875 
L 1259 0 
L 628 0 
L 628 4666 
z
" transform="scale(0.015625)"/>
      </defs>
      <use xlink:href="#DejaVuSans-4d"/>
      <use xlink:href="#DejaVuSans-4c" x="86.279297"/>
      <use xlink:href="#DejaVuSans-50" x="141.992188"/>
     </g>
    </g>
   </g>
  </g>
 </g>
 <defs>
  <clipPath id="p0def2b70fa">
   <rect x="90" y="51.84" width="558" height="332.64"/>
  </clipPath>
 </defs>
</svg>
