<?xml version="1.0" encoding="utf-8" standalone="no"?>
<!DOCTYPE svg PUBLIC "-//W3C//DTD SVG 1.1//EN"
  "http://www.w3.org/Graphics/SVG/1.1/DTD/svg11.dtd">
<svg xmlns:xlink="http://www.w3.org/1999/xlink" width="720pt" height="432pt" viewBox="0 0 720 432" xmlns="http://www.w3.org/2000/svg" version="1.1">
 <metadata>
  <rdf:RDF xmlns:dc="http://purl.org/dc/elements/1.1/" xmlns:cc="http://creativecommons.org/ns#" xmlns:rdf="http://www.w3.org/1999/02/22-rdf-syntax-ns#">
   <cc:Work>
    <dc:type rdf:resource="http://purl.org/dc/dcmitype/StillImage"/>
    <dc:date>2025-01-27T23:58:43.349444</dc:date>
    <dc:format>image/svg+xml</dc:format>
    <dc:creator>
     <cc:Agent>
      <dc:title>Matplotlib v3.5.1, https://matplotlib.org/</dc:title>
     </cc:Agent>
    </dc:creator>
   </cc:Work>
  </rdf:RDF>
 </metadata>
 <defs>
  <style type="text/css">*{stroke-linejoin: round; stroke-linecap: butt}</style>
 </defs>
 <g id="figure_1">
  <g id="patch_1">
   <path d="M 0 432 
L 720 432 
L 720 0 
L 0 0 
z
" style="fill: #ffffff"/>
  </g>
  <g id="axes_1">
   <g id="patch_2">
    <path d="M 90 384.48 
L 648 384.48 
L 648 51.84 
L 90 51.84 
z
" style="fill: #ffffff"/>
   </g>
   <g id="matplotlib.axis_1">
    <g id="xtick_1">
     <g id="line2d_1">
      <path d="M 115.363636 384.48 
L 115.363636 51.84 
" clip-path="url(#p3f5b0bb27c)" style="fill: none; stroke: #b0b0b0; stroke-width: 0.8; stroke-linecap: square"/>
     </g>
     <g id="line2d_2">
      <defs>
       <path id="m4600e0aa52" d="M 0 0 
L 0 3.5 
" style="stroke: #000000; stroke-width: 0.8"/>
      </defs>
      <g>
       <use xlink:href="#m4600e0aa52" x="115.363636" y="384.48" style="stroke: #000000; stroke-width: 0.8"/>
      </g>
     </g>
     <g id="text_1">
      <!-- 0 -->
      <g transform="translate(112.182386 399.078438)scale(0.1 -0.1)">
       <defs>
        <path id="DejaVuSans-30" d="M 2034 4250 
Q 1547 4250 1301 3770 
Q 1056 3291 1056 2328 
Q 1056 1369 1301 889 
Q 1547 409 2034 409 
Q 2525 409 2770 889 
Q 3016 1369 3016 2328 
Q 3016 3291 2770 3770 
Q 2525 4250 2034 4250 
z
M 2034 4750 
Q 2819 4750 3233 4129 
Q 3647 3509 3647 2328 
Q 3647 1150 3233 529 
Q 2819 -91 2034 -91 
Q 1250 -91 836 529 
Q 422 1150 422 2328 
Q 422 3509 836 4129 
Q 1250 4750 2034 4750 
z
" transform="scale(0.015625)"/>
       </defs>
       <use xlink:href="#DejaVuSans-30"/>
      </g>
     </g>
    </g>
    <g id="xtick_2">
     <g id="line2d_3">
      <path d="M 179.091366 384.48 
L 179.091366 51.84 
" clip-path="url(#p3f5b0bb27c)" style="fill: none; stroke: #b0b0b0; stroke-width: 0.8; stroke-linecap: square"/>
     </g>
     <g id="line2d_4">
      <g>
       <use xlink:href="#m4600e0aa52" x="179.091366" y="384.48" style="stroke: #000000; stroke-width: 0.8"/>
      </g>
     </g>
     <g id="text_2">
      <!-- 25 -->
      <g transform="translate(172.728866 399.078438)scale(0.1 -0.1)">
       <defs>
        <path id="DejaVuSans-32" d="M 1228 531 
L 3431 531 
L 3431 0 
L 469 0 
L 469 531 
Q 828 903 1448 1529 
Q 2069 2156 2228 2338 
Q 2531 2678 2651 2914 
Q 2772 3150 2772 3378 
Q 2772 3750 2511 3984 
Q 2250 4219 1831 4219 
Q 1534 4219 1204 4116 
Q 875 4013 500 3803 
L 500 4441 
Q 881 4594 1212 4672 
Q 1544 4750 1819 4750 
Q 2544 4750 2975 4387 
Q 3406 4025 3406 3419 
Q 3406 3131 3298 2873 
Q 3191 2616 2906 2266 
Q 2828 2175 2409 1742 
Q 1991 1309 1228 531 
z
" transform="scale(0.015625)"/>
        <path id="DejaVuSans-35" d="M 691 4666 
L 3169 4666 
L 3169 4134 
L 1269 4134 
L 1269 2991 
Q 1406 3038 1543 3061 
Q 1681 3084 1819 3084 
Q 2600 3084 3056 2656 
Q 3513 2228 3513 1497 
Q 3513 744 3044 326 
Q 2575 -91 1722 -91 
Q 1428 -91 1123 -41 
Q 819 9 494 109 
L 494 744 
Q 775 591 1075 516 
Q 1375 441 1709 441 
Q 2250 441 2565 725 
Q 2881 1009 2881 1497 
Q 2881 1984 2565 2268 
Q 2250 2553 1709 2553 
Q 1456 2553 1204 2497 
Q 953 2441 691 2322 
L 691 4666 
z
" transform="scale(0.015625)"/>
       </defs>
       <use xlink:href="#DejaVuSans-32"/>
       <use xlink:href="#DejaVuSans-35" x="63.623047"/>
      </g>
     </g>
    </g>
    <g id="xtick_3">
     <g id="line2d_5">
      <path d="M 242.819095 384.48 
L 242.819095 51.84 
" clip-path="url(#p3f5b0bb27c)" style="fill: none; stroke: #b0b0b0; stroke-width: 0.8; stroke-linecap: square"/>
     </g>
     <g id="line2d_6">
      <g>
       <use xlink:href="#m4600e0aa52" x="242.819095" y="384.48" style="stroke: #000000; stroke-width: 0.8"/>
      </g>
     </g>
     <g id="text_3">
      <!-- 50 -->
      <g transform="translate(236.456595 399.078438)scale(0.1 -0.1)">
       <use xlink:href="#DejaVuSans-35"/>
       <use xlink:href="#DejaVuSans-30" x="63.623047"/>
      </g>
     </g>
    </g>
    <g id="xtick_4">
     <g id="line2d_7">
      <path d="M 306.546825 384.48 
L 306.546825 51.84 
" clip-path="url(#p3f5b0bb27c)" style="fill: none; stroke: #b0b0b0; stroke-width: 0.8; stroke-linecap: square"/>
     </g>
     <g id="line2d_8">
      <g>
       <use xlink:href="#m4600e0aa52" x="306.546825" y="384.48" style="stroke: #000000; stroke-width: 0.8"/>
      </g>
     </g>
     <g id="text_4">
      <!-- 75 -->
      <g transform="translate(300.184325 399.078438)scale(0.1 -0.1)">
       <defs>
        <path id="DejaVuSans-37" d="M 525 4666 
L 3525 4666 
L 3525 4397 
L 1831 0 
L 1172 0 
L 2766 4134 
L 525 4134 
L 525 4666 
z
" transform="scale(0.015625)"/>
       </defs>
       <use xlink:href="#DejaVuSans-37"/>
       <use xlink:href="#DejaVuSans-35" x="63.623047"/>
      </g>
     </g>
    </g>
    <g id="xtick_5">
     <g id="line2d_9">
      <path d="M 370.274555 384.48 
L 370.274555 51.84 
" clip-path="url(#p3f5b0bb27c)" style="fill: none; stroke: #b0b0b0; stroke-width: 0.8; stroke-linecap: square"/>
     </g>
     <g id="line2d_10">
      <g>
       <use xlink:href="#m4600e0aa52" x="370.274555" y="384.48" style="stroke: #000000; stroke-width: 0.8"/>
      </g>
     </g>
     <g id="text_5">
      <!-- 100 -->
      <g transform="translate(360.730805 399.078438)scale(0.1 -0.1)">
       <defs>
        <path id="DejaVuSans-31" d="M 794 531 
L 1825 531 
L 1825 4091 
L 703 3866 
L 703 4441 
L 1819 4666 
L 2450 4666 
L 2450 531 
L 3481 531 
L 3481 0 
L 794 0 
L 794 531 
z
" transform="scale(0.015625)"/>
       </defs>
       <use xlink:href="#DejaVuSans-31"/>
       <use xlink:href="#DejaVuSans-30" x="63.623047"/>
       <use xlink:href="#DejaVuSans-30" x="127.246094"/>
      </g>
     </g>
    </g>
    <g id="xtick_6">
     <g id="line2d_11">
      <path d="M 434.002284 384.48 
L 434.002284 51.84 
" clip-path="url(#p3f5b0bb27c)" style="fill: none; stroke: #b0b0b0; stroke-width: 0.8; stroke-linecap: square"/>
     </g>
     <g id="line2d_12">
      <g>
       <use xlink:href="#m4600e0aa52" x="434.002284" y="384.48" style="stroke: #000000; stroke-width: 0.8"/>
      </g>
     </g>
     <g id="text_6">
      <!-- 125 -->
      <g transform="translate(424.458534 399.078438)scale(0.1 -0.1)">
       <use xlink:href="#DejaVuSans-31"/>
       <use xlink:href="#DejaVuSans-32" x="63.623047"/>
       <use xlink:href="#DejaVuSans-35" x="127.246094"/>
      </g>
     </g>
    </g>
    <g id="xtick_7">
     <g id="line2d_13">
      <path d="M 497.730014 384.48 
L 497.730014 51.84 
" clip-path="url(#p3f5b0bb27c)" style="fill: none; stroke: #b0b0b0; stroke-width: 0.8; stroke-linecap: square"/>
     </g>
     <g id="line2d_14">
      <g>
       <use xlink:href="#m4600e0aa52" x="497.730014" y="384.48" style="stroke: #000000; stroke-width: 0.8"/>
      </g>
     </g>
     <g id="text_7">
      <!-- 150 -->
      <g transform="translate(488.186264 399.078438)scale(0.1 -0.1)">
       <use xlink:href="#DejaVuSans-31"/>
       <use xlink:href="#DejaVuSans-35" x="63.623047"/>
       <use xlink:href="#DejaVuSans-30" x="127.246094"/>
      </g>
     </g>
    </g>
    <g id="xtick_8">
     <g id="line2d_15">
      <path d="M 561.457743 384.48 
L 561.457743 51.84 
" clip-path="url(#p3f5b0bb27c)" style="fill: none; stroke: #b0b0b0; stroke-width: 0.8; stroke-linecap: square"/>
     </g>
     <g id="line2d_16">
      <g>
       <use xlink:href="#m4600e0aa52" x="561.457743" y="384.48" style="stroke: #000000; stroke-width: 0.8"/>
      </g>
     </g>
     <g id="text_8">
      <!-- 175 -->
      <g transform="translate(551.913993 399.078438)scale(0.1 -0.1)">
       <use xlink:href="#DejaVuSans-31"/>
       <use xlink:href="#DejaVuSans-37" x="63.623047"/>
       <use xlink:href="#DejaVuSans-35" x="127.246094"/>
      </g>
     </g>
    </g>
    <g id="xtick_9">
     <g id="line2d_17">
      <path d="M 625.185473 384.48 
L 625.185473 51.84 
" clip-path="url(#p3f5b0bb27c)" style="fill: none; stroke: #b0b0b0; stroke-width: 0.8; stroke-linecap: square"/>
     </g>
     <g id="line2d_18">
      <g>
       <use xlink:href="#m4600e0aa52" x="625.185473" y="384.48" style="stroke: #000000; stroke-width: 0.8"/>
      </g>
     </g>
     <g id="text_9">
      <!-- 200 -->
      <g transform="translate(615.641723 399.078438)scale(0.1 -0.1)">
       <use xlink:href="#DejaVuSans-32"/>
       <use xlink:href="#DejaVuSans-30" x="63.623047"/>
       <use xlink:href="#DejaVuSans-30" x="127.246094"/>
      </g>
     </g>
    </g>
    <g id="text_10">
     <!-- Epoch -->
     <g transform="translate(353.689062 412.756563)scale(0.1 -0.1)">
      <defs>
       <path id="DejaVuSans-45" d="M 628 4666 
L 3578 4666 
L 3578 4134 
L 1259 4134 
L 1259 2753 
L 3481 2753 
L 3481 2222 
L 1259 2222 
L 1259 531 
L 3634 531 
L 3634 0 
L 628 0 
L 628 4666 
z
" transform="scale(0.015625)"/>
       <path id="DejaVuSans-70" d="M 1159 525 
L 1159 -1331 
L 581 -1331 
L 581 3500 
L 1159 3500 
L 1159 2969 
Q 1341 3281 1617 3432 
Q 1894 3584 2278 3584 
Q 2916 3584 3314 3078 
Q 3713 2572 3713 1747 
Q 3713 922 3314 415 
Q 2916 -91 2278 -91 
Q 1894 -91 1617 61 
Q 1341 213 1159 525 
z
M 3116 1747 
Q 3116 2381 2855 2742 
Q 2594 3103 2138 3103 
Q 1681 3103 1420 2742 
Q 1159 2381 1159 1747 
Q 1159 1113 1420 752 
Q 1681 391 2138 391 
Q 2594 391 2855 752 
Q 3116 1113 3116 1747 
z
" transform="scale(0.015625)"/>
       <path id="DejaVuSans-6f" d="M 1959 3097 
Q 1497 3097 1228 2736 
Q 959 2375 959 1747 
Q 959 1119 1226 758 
Q 1494 397 1959 397 
Q 2419 397 2687 759 
Q 2956 1122 2956 1747 
Q 2956 2369 2687 2733 
Q 2419 3097 1959 3097 
z
M 1959 3584 
Q 2709 3584 3137 3096 
Q 3566 2609 3566 1747 
Q 3566 888 3137 398 
Q 2709 -91 1959 -91 
Q 1206 -91 779 398 
Q 353 888 353 1747 
Q 353 2609 779 3096 
Q 1206 3584 1959 3584 
z
" transform="scale(0.015625)"/>
       <path id="DejaVuSans-63" d="M 3122 3366 
L 3122 2828 
Q 2878 2963 2633 3030 
Q 2388 3097 2138 3097 
Q 1578 3097 1268 2742 
Q 959 2388 959 1747 
Q 959 1106 1268 751 
Q 1578 397 2138 397 
Q 2388 397 2633 464 
Q 2878 531 3122 666 
L 3122 134 
Q 2881 22 2623 -34 
Q 2366 -91 2075 -91 
Q 1284 -91 818 406 
Q 353 903 353 1747 
Q 353 2603 823 3093 
Q 1294 3584 2113 3584 
Q 2378 3584 2631 3529 
Q 2884 3475 3122 3366 
z
" transform="scale(0.015625)"/>
       <path id="DejaVuSans-68" d="M 3513 2113 
L 3513 0 
L 2938 0 
L 2938 2094 
Q 2938 2591 2744 2837 
Q 2550 3084 2163 3084 
Q 1697 3084 1428 2787 
Q 1159 2491 1159 1978 
L 1159 0 
L 581 0 
L 581 4863 
L 1159 4863 
L 1159 2956 
Q 1366 3272 1645 3428 
Q 1925 3584 2291 3584 
Q 2894 3584 3203 3211 
Q 3513 2838 3513 2113 
z
" transform="scale(0.015625)"/>
      </defs>
      <use xlink:href="#DejaVuSans-45"/>
      <use xlink:href="#DejaVuSans-70" x="63.183594"/>
      <use xlink:href="#DejaVuSans-6f" x="126.660156"/>
      <use xlink:href="#DejaVuSans-63" x="187.841797"/>
      <use xlink:href="#DejaVuSans-68" x="242.822266"/>
     </g>
    </g>
   </g>
   <g id="matplotlib.axis_2">
    <g id="ytick_1">
     <g id="line2d_19">
      <path d="M 90 358.235405 
L 648 358.235405 
" clip-path="url(#p3f5b0bb27c)" style="fill: none; stroke: #b0b0b0; stroke-width: 0.8; stroke-linecap: square"/>
     </g>
     <g id="line2d_20">
      <defs>
       <path id="m25a6e8a00b" d="M 0 0 
L -3.5 0 
" style="stroke: #000000; stroke-width: 0.8"/>
      </defs>
      <g>
       <use xlink:href="#m25a6e8a00b" x="90" y="358.235405" style="stroke: #000000; stroke-width: 0.8"/>
      </g>
     </g>
     <g id="text_11">
      <!-- 0.5 -->
      <g transform="translate(67.096875 362.034624)scale(0.1 -0.1)">
       <defs>
        <path id="DejaVuSans-2e" d="M 684 794 
L 1344 794 
L 1344 0 
L 684 0 
L 684 794 
z
" transform="scale(0.015625)"/>
       </defs>
       <use xlink:href="#DejaVuSans-30"/>
       <use xlink:href="#DejaVuSans-2e" x="63.623047"/>
       <use xlink:href="#DejaVuSans-35" x="95.410156"/>
      </g>
     </g>
    </g>
    <g id="ytick_2">
     <g id="line2d_21">
      <path d="M 90 291.659701 
L 648 291.659701 
" clip-path="url(#p3f5b0bb27c)" style="fill: none; stroke: #b0b0b0; stroke-width: 0.8; stroke-linecap: square"/>
     </g>
     <g id="line2d_22">
      <g>
       <use xlink:href="#m25a6e8a00b" x="90" y="291.659701" style="stroke: #000000; stroke-width: 0.8"/>
      </g>
     </g>
     <g id="text_12">
      <!-- 1.0 -->
      <g transform="translate(67.096875 295.45892)scale(0.1 -0.1)">
       <use xlink:href="#DejaVuSans-31"/>
       <use xlink:href="#DejaVuSans-2e" x="63.623047"/>
       <use xlink:href="#DejaVuSans-30" x="95.410156"/>
      </g>
     </g>
    </g>
    <g id="ytick_3">
     <g id="line2d_23">
      <path d="M 90 225.083996 
L 648 225.083996 
" clip-path="url(#p3f5b0bb27c)" style="fill: none; stroke: #b0b0b0; stroke-width: 0.8; stroke-linecap: square"/>
     </g>
     <g id="line2d_24">
      <g>
       <use xlink:href="#m25a6e8a00b" x="90" y="225.083996" style="stroke: #000000; stroke-width: 0.8"/>
      </g>
     </g>
     <g id="text_13">
      <!-- 1.5 -->
      <g transform="translate(67.096875 228.883215)scale(0.1 -0.1)">
       <use xlink:href="#DejaVuSans-31"/>
       <use xlink:href="#DejaVuSans-2e" x="63.623047"/>
       <use xlink:href="#DejaVuSans-35" x="95.410156"/>
      </g>
     </g>
    </g>
    <g id="ytick_4">
     <g id="line2d_25">
      <path d="M 90 158.508292 
L 648 158.508292 
" clip-path="url(#p3f5b0bb27c)" style="fill: none; stroke: #b0b0b0; stroke-width: 0.8; stroke-linecap: square"/>
     </g>
     <g id="line2d_26">
      <g>
       <use xlink:href="#m25a6e8a00b" x="90" y="158.508292" style="stroke: #000000; stroke-width: 0.8"/>
      </g>
     </g>
     <g id="text_14">
      <!-- 2.0 -->
      <g transform="translate(67.096875 162.307511)scale(0.1 -0.1)">
       <use xlink:href="#DejaVuSans-32"/>
       <use xlink:href="#DejaVuSans-2e" x="63.623047"/>
       <use xlink:href="#DejaVuSans-30" x="95.410156"/>
      </g>
     </g>
    </g>
    <g id="ytick_5">
     <g id="line2d_27">
      <path d="M 90 91.932588 
L 648 91.932588 
" clip-path="url(#p3f5b0bb27c)" style="fill: none; stroke: #b0b0b0; stroke-width: 0.8; stroke-linecap: square"/>
     </g>
     <g id="line2d_28">
      <g>
       <use xlink:href="#m25a6e8a00b" x="90" y="91.932588" style="stroke: #000000; stroke-width: 0.8"/>
      </g>
     </g>
     <g id="text_15">
      <!-- 2.5 -->
      <g transform="translate(67.096875 95.731806)scale(0.1 -0.1)">
       <use xlink:href="#DejaVuSans-32"/>
       <use xlink:href="#DejaVuSans-2e" x="63.623047"/>
       <use xlink:href="#DejaVuSans-35" x="95.410156"/>
      </g>
     </g>
    </g>
    <g id="text_16">
     <!-- Loss -->
     <g transform="translate(61.017187 229.127187)rotate(-90)scale(0.1 -0.1)">
      <defs>
       <path id="DejaVuSans-4c" d="M 628 4666 
L 1259 4666 
L 1259 531 
L 3531 531 
L 3531 0 
L 628 0 
L 628 4666 
z
" transform="scale(0.015625)"/>
       <path id="DejaVuSans-73" d="M 2834 3397 
L 2834 2853 
Q 2591 2978 2328 3040 
Q 2066 3103 1784 3103 
Q 1356 3103 1142 2972 
Q 928 2841 928 2578 
Q 928 2378 1081 2264 
Q 1234 2150 1697 2047 
L 1894 2003 
Q 2506 1872 2764 1633 
Q 3022 1394 3022 966 
Q 3022 478 2636 193 
Q 2250 -91 1575 -91 
Q 1294 -91 989 -36 
Q 684 19 347 128 
L 347 722 
Q 666 556 975 473 
Q 1284 391 1588 391 
Q 1994 391 2212 530 
Q 2431 669 2431 922 
Q 2431 1156 2273 1281 
Q 2116 1406 1581 1522 
L 1381 1569 
Q 847 1681 609 1914 
Q 372 2147 372 2553 
Q 372 3047 722 3315 
Q 1072 3584 1716 3584 
Q 2034 3584 2315 3537 
Q 2597 3491 2834 3397 
z
" transform="scale(0.015625)"/>
      </defs>
      <use xlink:href="#DejaVuSans-4c"/>
      <use xlink:href="#DejaVuSans-6f" x="53.962891"/>
      <use xlink:href="#DejaVuSans-73" x="115.144531"/>
      <use xlink:href="#DejaVuSans-73" x="167.244141"/>
     </g>
    </g>
   </g>
   <g id="line2d_29">
    <path d="M 115.363636 314.301324 
L 117.912746 324.739444 
L 120.461855 323.02695 
L 123.010964 340.19711 
L 125.560073 344.745787 
L 128.109182 338.60321 
L 130.658291 348.820062 
L 133.207401 346.823261 
L 135.75651 345.465169 
L 138.305619 342.914675 
L 140.854728 355.669053 
L 143.403837 353.714014 
L 145.952947 359.035974 
L 148.502056 355.466412 
L 151.051165 358.727195 
L 153.600274 362.442783 
L 156.149383 362.591151 
L 158.698492 359.991613 
L 161.247602 363.264836 
L 163.796711 364.079805 
L 166.34582 365.611325 
L 168.894929 359.464348 
L 171.444038 364.32572 
L 173.993148 335.675917 
L 176.542257 364.41468 
L 179.091366 365.468072 
L 181.640475 363.992969 
L 184.189584 364.252729 
L 186.738693 365.821374 
L 189.287803 358.676846 
L 191.836912 366.536817 
L 194.386021 366.332235 
L 196.93513 365.943949 
L 202.033349 366.721177 
L 204.582458 366.719077 
L 207.131567 350.483295 
L 209.680676 366.026778 
L 212.229785 357.453055 
L 214.778894 366.971571 
L 217.328004 364.96935 
L 219.877113 366.359533 
L 222.426222 364.085881 
L 224.975331 364.894787 
L 227.52444 365.226701 
L 230.07355 365.685157 
L 232.622659 357.972415 
L 235.171768 361.758587 
L 237.720877 365.94735 
L 240.269986 365.838398 
L 242.819095 365.366469 
L 245.368205 365.153297 
L 247.917314 367.5833 
L 253.015532 366.251296 
L 255.564641 365.745899 
L 258.113751 352.430318 
L 260.66286 368.057185 
L 263.211969 366.993039 
L 265.761078 367.295176 
L 268.310187 367.792834 
L 270.859296 366.586511 
L 273.408406 367.580046 
L 275.957515 367.874151 
L 278.506624 368.281866 
L 283.604842 367.976273 
L 286.153952 366.770041 
L 288.703061 366.442651 
L 291.25217 367.419091 
L 293.801279 366.859191 
L 296.350388 367.305914 
L 298.899497 367.18428 
L 301.448607 368.895032 
L 303.997716 367.744811 
L 306.546825 365.041627 
L 309.095934 364.893688 
L 311.645043 341.344823 
L 314.194153 368.001956 
L 316.743262 368.336703 
L 319.292371 368.303802 
L 321.84148 363.145639 
L 324.390589 366.321414 
L 326.939698 368.570828 
L 329.488808 368.69745 
L 332.037917 368.446904 
L 334.587026 366.259938 
L 337.136135 368.946765 
L 339.685244 363.527647 
L 342.234354 364.658471 
L 344.783463 367.090122 
L 347.332572 368.303775 
L 349.881681 366.722478 
L 352.43079 365.682868 
L 354.979899 367.437865 
L 357.529009 364.440418 
L 360.078118 367.773469 
L 362.627227 367.929004 
L 365.176336 368.349564 
L 367.725445 368.163954 
L 370.274555 369.118712 
L 372.823664 367.894699 
L 375.372773 368.773124 
L 377.921882 367.669323 
L 380.470991 367.486428 
L 383.020101 368.294179 
L 385.56921 368.437912 
L 388.118319 368.946047 
L 393.216537 367.978047 
L 395.765646 368.140458 
L 398.314756 368.447912 
L 400.863865 364.420128 
L 403.412974 367.047337 
L 405.962083 368.018836 
L 408.511192 365.068075 
L 411.060302 367.282803 
L 413.609411 368.498825 
L 416.15852 369.06661 
L 418.707629 368.047285 
L 421.256738 368.581276 
L 423.805847 368.09486 
L 426.354957 368.482579 
L 428.904066 368.24614 
L 431.453175 365.920636 
L 434.002284 368.247819 
L 436.551393 368.430897 
L 439.100503 369.092637 
L 441.649612 368.979241 
L 444.198721 366.823164 
L 446.74783 350.717507 
L 449.296939 368.692025 
L 451.846048 368.909055 
L 454.395158 366.837481 
L 459.493376 367.425405 
L 462.042485 368.284505 
L 467.140704 367.069003 
L 469.689813 364.091075 
L 472.238922 367.349846 
L 474.788031 367.892214 
L 477.33714 366.768982 
L 479.886249 369.275826 
L 482.435359 366.47469 
L 484.984468 367.857338 
L 487.533577 363.641758 
L 490.082686 367.753517 
L 492.631795 368.306675 
L 495.180905 369.356175 
L 497.730014 364.885787 
L 500.279123 369.024404 
L 502.828232 369.092907 
L 505.377341 368.742136 
L 507.92645 366.763148 
L 510.47556 368.792322 
L 513.024669 369.143954 
L 515.573778 367.764755 
L 518.122887 368.347969 
L 520.671996 369.306854 
L 523.221106 366.799462 
L 525.770215 368.34087 
L 528.319324 369.36 
L 530.868433 368.998182 
L 533.417542 367.996837 
L 535.966651 368.923131 
L 538.515761 367.856254 
L 541.06487 367.389619 
L 543.613979 368.612232 
L 546.163088 368.108673 
L 548.712197 368.709434 
L 551.261307 368.25335 
L 556.359525 368.354465 
L 558.908634 368.765628 
L 561.457743 368.602736 
L 564.006852 367.460242 
L 566.555962 368.70216 
L 569.105071 368.155304 
L 571.65418 368.948368 
L 574.203289 368.135506 
L 576.752398 367.512241 
L 579.301508 366.094682 
L 581.850617 367.882195 
L 584.399726 368.239993 
L 586.948835 368.858548 
L 589.497944 368.547824 
L 592.047053 368.434246 
L 594.596163 369.260291 
L 597.145272 368.80683 
L 599.694381 369.065864 
L 602.24349 368.924456 
L 604.792599 366.936155 
L 607.341709 368.830409 
L 609.890818 368.373183 
L 612.439927 368.486547 
L 614.989036 367.78533 
L 620.087254 368.799108 
L 622.636364 368.960106 
L 622.636364 368.960106 
" clip-path="url(#p3f5b0bb27c)" style="fill: none; stroke: #1f77b4; stroke-width: 1.5; stroke-linecap: square"/>
   </g>
   <g id="line2d_30">
    <path d="M 115.363636 262.012327 
L 117.912746 261.727821 
L 120.461855 276.580413 
L 123.010964 286.833677 
L 125.560073 300.53562 
L 128.109182 306.396889 
L 130.658291 309.646338 
L 133.207401 323.850007 
L 135.75651 294.673406 
L 138.305619 325.508001 
L 140.854728 317.810588 
L 143.403837 326.451168 
L 145.952947 342.292958 
L 148.502056 337.830336 
L 151.051165 339.235221 
L 153.600274 322.451145 
L 156.149383 344.996253 
L 158.698492 350.266185 
L 161.247602 345.419781 
L 163.796711 347.423058 
L 166.34582 353.185891 
L 168.894929 338.469465 
L 171.444038 356.115716 
L 173.993148 352.62415 
L 176.542257 357.402111 
L 179.091366 355.311001 
L 181.640475 347.863983 
L 184.189584 354.783894 
L 186.738693 345.056197 
L 189.287803 348.638318 
L 191.836912 351.552429 
L 194.386021 357.032106 
L 196.93513 326.430255 
L 199.484239 347.552255 
L 202.033349 356.804068 
L 204.582458 356.80137 
L 207.131567 351.500604 
L 209.680676 359.123029 
L 212.229785 359.86411 
L 214.778894 354.267954 
L 217.328004 358.399793 
L 219.877113 348.683548 
L 222.426222 355.648792 
L 224.975331 360.015192 
L 227.52444 351.339923 
L 230.07355 357.05451 
L 232.622659 357.815298 
L 235.171768 360.770376 
L 237.720877 338.287697 
L 240.269986 354.437103 
L 242.819095 361.142861 
L 245.368205 361.458688 
L 247.917314 361.53714 
L 250.466423 356.578316 
L 253.015532 350.403764 
L 255.564641 360.692667 
L 258.113751 349.079775 
L 260.66286 362.236432 
L 263.211969 359.981375 
L 265.761078 361.022942 
L 268.310187 360.224802 
L 270.859296 359.201627 
L 273.408406 360.243762 
L 275.957515 364.171825 
L 278.506624 361.832336 
L 281.055733 357.125708 
L 283.604842 360.720655 
L 286.153952 360.133858 
L 288.703061 360.699853 
L 291.25217 363.090052 
L 293.801279 359.410804 
L 296.350388 360.922962 
L 298.899497 364.999115 
L 301.448607 360.510573 
L 303.997716 361.938232 
L 306.546825 361.191587 
L 309.095934 361.118532 
L 311.645043 359.961641 
L 314.194153 362.642369 
L 316.743262 359.744893 
L 319.292371 360.413903 
L 321.84148 361.517485 
L 324.390589 356.176224 
L 326.939698 360.664635 
L 329.488808 362.528818 
L 332.037917 362.78078 
L 334.587026 361.783578 
L 337.136135 362.678309 
L 339.685244 363.001993 
L 342.234354 364.929787 
L 344.783463 359.160993 
L 347.332572 362.133024 
L 349.881681 354.692569 
L 352.43079 363.76605 
L 354.979899 362.286094 
L 357.529009 361.635044 
L 360.078118 364.149781 
L 362.627227 363.291264 
L 365.176336 361.842094 
L 370.274555 365.325617 
L 372.823664 363.461235 
L 375.372773 362.216634 
L 377.921882 363.83378 
L 380.470991 360.625147 
L 383.020101 362.396534 
L 385.56921 360.716845 
L 388.118319 361.143715 
L 390.667428 364.680777 
L 393.216537 364.151956 
L 395.765646 365.234292 
L 398.314756 365.171074 
L 400.863865 360.815721 
L 403.412974 363.965513 
L 408.511192 360.72617 
L 411.060302 363.114206 
L 413.609411 364.178884 
L 416.15852 363.105972 
L 418.707629 362.942759 
L 421.256738 361.237254 
L 423.805847 363.08375 
L 426.354957 365.091043 
L 428.904066 361.760475 
L 431.453175 366.660078 
L 434.002284 364.465652 
L 436.551393 364.633682 
L 439.100503 363.160063 
L 441.649612 365.208995 
L 444.198721 362.777328 
L 446.74783 364.370597 
L 449.296939 363.147805 
L 451.846048 366.660915 
L 454.395158 363.602603 
L 456.944267 362.97489 
L 459.493376 365.160154 
L 462.042485 363.84224 
L 464.591594 366.643733 
L 467.140704 364.066516 
L 469.689813 365.588047 
L 472.238922 364.529449 
L 474.788031 366.689308 
L 477.33714 364.152987 
L 479.886249 367.014821 
L 482.435359 365.618432 
L 484.984468 361.119457 
L 487.533577 362.288098 
L 490.082686 366.913663 
L 492.631795 364.624876 
L 495.180905 361.833308 
L 497.730014 363.987025 
L 500.279123 362.864177 
L 502.828232 364.554893 
L 505.377341 365.45608 
L 507.92645 365.259296 
L 510.47556 365.908715 
L 513.024669 365.475512 
L 515.573778 363.859061 
L 518.122887 364.974806 
L 520.671996 364.202547 
L 523.221106 366.070868 
L 525.770215 363.762935 
L 528.319324 366.977559 
L 530.868433 367.19278 
L 533.417542 365.222657 
L 535.966651 364.146531 
L 538.515761 365.530532 
L 543.613979 364.59517 
L 546.163088 365.473889 
L 548.712197 364.992246 
L 551.261307 365.579575 
L 553.810416 366.397108 
L 556.359525 366.750402 
L 558.908634 366.875544 
L 561.457743 366.159431 
L 564.006852 366.36166 
L 566.555962 364.94708 
L 569.105071 363.868434 
L 571.65418 361.515089 
L 574.203289 362.654805 
L 576.752398 365.185654 
L 579.301508 364.384188 
L 581.850617 364.013179 
L 584.399726 360.360717 
L 586.948835 363.958473 
L 589.497944 362.537128 
L 592.047053 363.334042 
L 594.596163 366.052146 
L 597.145272 362.680131 
L 599.694381 366.415052 
L 602.24349 365.600225 
L 604.792599 366.360283 
L 607.341709 366.613233 
L 609.890818 365.558654 
L 612.439927 365.851997 
L 614.989036 366.890441 
L 617.538145 364.834311 
L 620.087254 364.952521 
L 622.636364 365.792569 
L 622.636364 365.792569 
" clip-path="url(#p3f5b0bb27c)" style="fill: none; stroke: #ff7f0e; stroke-width: 1.5; stroke-linecap: square"/>
   </g>
   <g id="line2d_31">
    <path d="M 115.363636 66.96 
L 117.912746 175.81826 
L 120.461855 258.912463 
L 123.010964 255.728934 
L 125.560073 255.056082 
L 128.109182 248.776896 
L 130.658291 288.04027 
L 133.207401 309.348412 
L 135.75651 313.203706 
L 138.305619 302.232804 
L 140.854728 310.276174 
L 143.403837 320.413717 
L 145.952947 313.084373 
L 148.502056 300.220702 
L 151.051165 332.275112 
L 153.600274 308.802956 
L 156.149383 333.771972 
L 158.698492 308.709132 
L 161.247602 335.853574 
L 163.796711 330.624506 
L 166.34582 329.687784 
L 168.894929 318.427535 
L 171.444038 345.665454 
L 173.993148 294.098062 
L 176.542257 323.468756 
L 179.091366 334.036272 
L 181.640475 323.379018 
L 184.189584 329.427286 
L 186.738693 315.680709 
L 189.287803 343.132355 
L 191.836912 305.968694 
L 194.386021 251.260368 
L 196.93513 340.351966 
L 199.484239 315.914707 
L 202.033349 329.495166 
L 204.582458 313.443283 
L 207.131567 340.800208 
L 209.680676 342.336164 
L 212.229785 350.752118 
L 214.778894 296.919499 
L 217.328004 354.806354 
L 219.877113 317.802215 
L 222.426222 294.073078 
L 224.975331 352.398596 
L 227.52444 328.345168 
L 230.07355 348.999926 
L 232.622659 334.227381 
L 235.171768 352.14044 
L 237.720877 306.389087 
L 240.269986 341.189832 
L 242.819095 356.558657 
L 245.368205 335.404752 
L 247.917314 337.039707 
L 250.466423 348.351987 
L 253.015532 350.695698 
L 255.564641 344.720334 
L 258.113751 349.114139 
L 260.66286 357.016646 
L 263.211969 350.779475 
L 265.761078 333.328778 
L 268.310187 354.417103 
L 270.859296 357.896265 
L 273.408406 323.514073 
L 275.957515 356.635061 
L 278.506624 354.530737 
L 281.055733 355.264327 
L 283.604842 337.808455 
L 286.153952 315.741058 
L 288.703061 355.642927 
L 291.25217 320.468852 
L 293.801279 334.520585 
L 296.350388 358.356127 
L 298.899497 353.646483 
L 301.448607 340.677638 
L 303.997716 354.672419 
L 306.546825 331.032955 
L 309.095934 335.076509 
L 311.645043 338.784748 
L 314.194153 346.179497 
L 316.743262 349.316915 
L 319.292371 360.491593 
L 321.84148 342.937262 
L 324.390589 357.088653 
L 326.939698 340.601979 
L 329.488808 356.556633 
L 332.037917 347.27244 
L 334.587026 345.761111 
L 337.136135 334.294206 
L 339.685244 326.884743 
L 342.234354 342.814358 
L 344.783463 356.435896 
L 347.332572 344.283933 
L 349.881681 312.454617 
L 352.43079 356.576371 
L 354.979899 350.362891 
L 357.529009 354.640562 
L 360.078118 357.610617 
L 362.627227 358.964939 
L 365.176336 353.608142 
L 367.725445 330.48992 
L 370.274555 362.660583 
L 372.823664 343.609113 
L 375.372773 357.765076 
L 377.921882 355.93925 
L 380.470991 318.53463 
L 383.020101 353.891386 
L 385.56921 334.187731 
L 388.118319 324.002307 
L 390.667428 345.131077 
L 393.216537 343.234569 
L 395.765646 327.107519 
L 398.314756 347.624453 
L 400.863865 361.696432 
L 403.412974 336.9107 
L 405.962083 361.438673 
L 408.511192 355.237216 
L 411.060302 360.504502 
L 413.609411 360.261456 
L 416.15852 360.797428 
L 418.707629 360.736635 
L 421.256738 362.262967 
L 423.805847 355.532809 
L 426.354957 356.590792 
L 428.904066 356.364921 
L 431.453175 324.654913 
L 434.002284 353.363811 
L 436.551393 334.298246 
L 439.100503 355.441047 
L 441.649612 332.783869 
L 444.198721 350.619182 
L 446.74783 344.574732 
L 449.296939 364.973612 
L 451.846048 353.560023 
L 454.395158 361.488327 
L 456.944267 351.955021 
L 462.042485 364.28778 
L 464.591594 359.067244 
L 467.140704 347.817007 
L 469.689813 333.575125 
L 472.238922 331.9509 
L 474.788031 356.014797 
L 477.33714 353.372104 
L 479.886249 342.595685 
L 482.435359 348.486875 
L 484.984468 361.018986 
L 487.533577 339.033516 
L 490.082686 358.507217 
L 492.631795 358.942392 
L 495.180905 346.271869 
L 497.730014 363.65898 
L 500.279123 339.462338 
L 502.828232 355.475253 
L 505.377341 357.565403 
L 507.92645 347.171608 
L 510.47556 353.218391 
L 513.024669 364.125992 
L 515.573778 338.102929 
L 520.671996 364.283665 
L 523.221106 336.389355 
L 525.770215 362.835986 
L 528.319324 358.122748 
L 530.868433 360.946442 
L 533.417542 358.483379 
L 535.966651 356.261271 
L 538.515761 361.304951 
L 541.06487 361.832526 
L 543.613979 348.874014 
L 546.163088 358.460138 
L 548.712197 360.635223 
L 551.261307 365.002207 
L 553.810416 353.887973 
L 556.359525 359.986355 
L 561.457743 358.667045 
L 564.006852 349.711404 
L 566.555962 354.641713 
L 569.105071 350.397208 
L 571.65418 362.603377 
L 574.203289 352.031901 
L 576.752398 362.19817 
L 579.301508 362.480811 
L 581.850617 337.282094 
L 584.399726 351.869934 
L 586.948835 353.190098 
L 589.497944 361.017196 
L 592.047053 361.689012 
L 594.596163 340.852239 
L 597.145272 359.582704 
L 599.694381 364.46839 
L 602.24349 362.011346 
L 604.792599 345.686914 
L 607.341709 355.603911 
L 609.890818 364.458763 
L 612.439927 341.563178 
L 614.989036 356.791925 
L 617.538145 342.61136 
L 620.087254 358.745318 
L 622.636364 350.447668 
L 622.636364 350.447668 
" clip-path="url(#p3f5b0bb27c)" style="fill: none; stroke: #2ca02c; stroke-width: 1.5; stroke-linecap: square"/>
   </g>
   <g id="line2d_32">
    <path d="M 115.363636 250.679642 
L 117.912746 246.742183 
L 120.461855 250.34101 
L 123.010964 253.350747 
L 125.560073 252.227645 
L 128.109182 252.216106 
L 130.658291 255.876203 
L 133.207401 255.808521 
L 135.75651 257.740679 
L 138.305619 260.171373 
L 140.854728 256.368643 
L 143.403837 263.87693 
L 145.952947 263.874851 
L 148.502056 268.645034 
L 151.051165 265.926929 
L 153.600274 270.244624 
L 156.149383 272.267337 
L 158.698492 275.453295 
L 161.247602 275.116155 
L 163.796711 277.063837 
L 166.34582 282.123145 
L 168.894929 276.961425 
L 171.444038 284.204334 
L 173.993148 286.780614 
L 176.542257 284.474316 
L 179.091366 289.23561 
L 181.640475 282.006098 
L 184.189584 289.643813 
L 186.738693 293.234743 
L 189.287803 289.98508 
L 191.836912 294.80927 
L 194.386021 295.016006 
L 196.93513 296.686636 
L 199.484239 300.551778 
L 202.033349 298.4507 
L 204.582458 301.54681 
L 207.131567 301.196955 
L 209.680676 300.54808 
L 212.229785 298.082934 
L 214.778894 302.647983 
L 217.328004 304.71272 
L 219.877113 305.576896 
L 222.426222 304.134185 
L 224.975331 305.372358 
L 227.52444 304.464238 
L 230.07355 306.918162 
L 232.622659 303.886513 
L 235.171768 303.498778 
L 237.720877 307.477642 
L 240.269986 309.331658 
L 242.819095 310.19327 
L 245.368205 311.483347 
L 247.917314 315.212578 
L 250.466423 312.496156 
L 253.015532 314.178793 
L 255.564641 313.601353 
L 258.113751 315.169578 
L 260.66286 315.696653 
L 263.211969 313.097841 
L 265.761078 314.193872 
L 268.310187 316.535281 
L 270.859296 317.571757 
L 273.408406 316.554757 
L 275.957515 314.58352 
L 278.506624 319.066657 
L 281.055733 314.97127 
L 283.604842 320.700707 
L 286.153952 313.166634 
L 288.703061 317.065205 
L 291.25217 319.868095 
L 293.801279 319.827635 
L 296.350388 319.40567 
L 298.899497 320.173672 
L 301.448607 319.791191 
L 303.997716 319.033896 
L 306.546825 319.594796 
L 309.095934 317.633669 
L 311.645043 316.58267 
L 314.194153 321.659493 
L 316.743262 324.081513 
L 319.292371 323.048172 
L 321.84148 323.642984 
L 324.390589 323.466042 
L 326.939698 321.763476 
L 329.488808 323.788761 
L 332.037917 322.615334 
L 334.587026 322.894689 
L 337.136135 325.590214 
L 339.685244 324.049838 
L 342.234354 323.944855 
L 344.783463 324.542691 
L 347.332572 324.161321 
L 349.881681 325.56831 
L 352.43079 324.638246 
L 357.529009 323.178147 
L 360.078118 326.356756 
L 362.627227 323.374907 
L 365.176336 327.172233 
L 367.725445 318.809897 
L 370.274555 324.902863 
L 372.823664 326.727848 
L 375.372773 326.54158 
L 377.921882 326.023282 
L 380.470991 325.349335 
L 383.020101 327.000219 
L 385.56921 327.931465 
L 388.118319 327.648674 
L 390.667428 329.215224 
L 393.216537 329.165844 
L 395.765646 327.918568 
L 398.314756 328.507389 
L 400.863865 327.565643 
L 403.412974 326.027274 
L 405.962083 327.522087 
L 408.511192 329.442675 
L 411.060302 328.399469 
L 413.609411 326.71934 
L 416.15852 326.466501 
L 418.707629 326.539119 
L 421.256738 329.979956 
L 423.805847 328.065758 
L 426.354957 329.394691 
L 428.904066 328.953837 
L 431.453175 329.781926 
L 436.551393 329.511627 
L 439.100503 329.729982 
L 441.649612 330.462238 
L 444.198721 327.287105 
L 446.74783 330.395826 
L 449.296939 329.639078 
L 451.846048 330.791172 
L 454.395158 329.667165 
L 456.944267 330.458746 
L 459.493376 330.3965 
L 462.042485 330.016154 
L 464.591594 329.461881 
L 467.140704 331.069011 
L 469.689813 330.61549 
L 472.238922 330.654919 
L 474.788031 330.320183 
L 477.33714 330.44319 
L 479.886249 332.192612 
L 482.435359 331.945432 
L 484.984468 329.770275 
L 487.533577 329.324319 
L 490.082686 331.35931 
L 492.631795 330.330786 
L 495.180905 329.604332 
L 497.730014 331.455666 
L 500.279123 332.17062 
L 502.828232 332.125653 
L 505.377341 331.393563 
L 507.92645 330.003789 
L 510.47556 332.113351 
L 513.024669 329.25197 
L 515.573778 333.18943 
L 518.122887 331.552514 
L 520.671996 333.025209 
L 523.221106 332.95582 
L 525.770215 331.534999 
L 528.319324 332.102446 
L 530.868433 332.471134 
L 533.417542 333.188858 
L 535.966651 331.783584 
L 538.515761 334.014137 
L 543.613979 333.667005 
L 546.163088 331.590411 
L 548.712197 333.222636 
L 551.261307 332.101438 
L 553.810416 332.684926 
L 556.359525 332.710672 
L 558.908634 332.502761 
L 561.457743 333.628132 
L 564.006852 332.693942 
L 566.555962 332.367222 
L 569.105071 333.45415 
L 571.65418 332.969487 
L 574.203289 333.513236 
L 576.752398 332.967257 
L 579.301508 332.769798 
L 581.850617 333.560085 
L 584.399726 334.21535 
L 586.948835 333.32323 
L 592.047053 332.949535 
L 594.596163 330.304961 
L 597.145272 332.569077 
L 599.694381 333.213763 
L 602.24349 334.088414 
L 604.792599 333.716695 
L 607.341709 332.794441 
L 609.890818 331.722418 
L 612.439927 334.740472 
L 614.989036 334.362134 
L 617.538145 334.885122 
L 620.087254 333.448745 
L 622.636364 332.720814 
L 622.636364 332.720814 
" clip-path="url(#p3f5b0bb27c)" style="fill: none; stroke: #d62728; stroke-width: 1.5; stroke-linecap: square"/>
   </g>
   <g id="patch_3">
    <path d="M 90 384.48 
L 90 51.84 
" style="fill: none; stroke: #000000; stroke-width: 0.8; stroke-linejoin: miter; stroke-linecap: square"/>
   </g>
   <g id="patch_4">
    <path d="M 648 384.48 
L 648 51.84 
" style="fill: none; stroke: #000000; stroke-width: 0.8; stroke-linejoin: miter; stroke-linecap: square"/>
   </g>
   <g id="patch_5">
    <path d="M 90 384.48 
L 648 384.48 
" style="fill: none; stroke: #000000; stroke-width: 0.8; stroke-linejoin: miter; stroke-linecap: square"/>
   </g>
   <g id="patch_6">
    <path d="M 90 51.84 
L 648 51.84 
" style="fill: none; stroke: #000000; stroke-width: 0.8; stroke-linejoin: miter; stroke-linecap: square"/>
   </g>
   <g id="text_17">
    <!-- Validation Loss -->
    <g transform="translate(324.30375 45.84)scale(0.12 -0.12)">
     <defs>
      <path id="DejaVuSans-56" d="M 1831 0 
L 50 4666 
L 709 4666 
L 2188 738 
L 3669 4666 
L 4325 4666 
L 2547 0 
L 1831 0 
z
" transform="scale(0.015625)"/>
      <path id="DejaVuSans-61" d="M 2194 1759 
Q 1497 1759 1228 1600 
Q 959 1441 959 1056 
Q 959 750 1161 570 
Q 1363 391 1709 391 
Q 2188 391 2477 730 
Q 2766 1069 2766 1631 
L 2766 1759 
L 2194 1759 
z
M 3341 1997 
L 3341 0 
L 2766 0 
L 2766 531 
Q 2569 213 2275 61 
Q 1981 -91 1556 -91 
Q 1019 -91 701 211 
Q 384 513 384 1019 
Q 384 1609 779 1909 
Q 1175 2209 1959 2209 
L 2766 2209 
L 2766 2266 
Q 2766 2663 2505 2880 
Q 2244 3097 1772 3097 
Q 1472 3097 1187 3025 
Q 903 2953 641 2809 
L 641 3341 
Q 956 3463 1253 3523 
Q 1550 3584 1831 3584 
Q 2591 3584 2966 3190 
Q 3341 2797 3341 1997 
z
" transform="scale(0.015625)"/>
      <path id="DejaVuSans-6c" d="M 603 4863 
L 1178 4863 
L 1178 0 
L 603 0 
L 603 4863 
z
" transform="scale(0.015625)"/>
      <path id="DejaVuSans-69" d="M 603 3500 
L 1178 3500 
L 1178 0 
L 603 0 
L 603 3500 
z
M 603 4863 
L 1178 4863 
L 1178 4134 
L 603 4134 
L 603 4863 
z
" transform="scale(0.015625)"/>
      <path id="DejaVuSans-64" d="M 2906 2969 
L 2906 4863 
L 3481 4863 
L 3481 0 
L 2906 0 
L 2906 525 
Q 2725 213 2448 61 
Q 2172 -91 1784 -91 
Q 1150 -91 751 415 
Q 353 922 353 1747 
Q 353 2572 751 3078 
Q 1150 3584 1784 3584 
Q 2172 3584 2448 3432 
Q 2725 3281 2906 2969 
z
M 947 1747 
Q 947 1113 1208 752 
Q 1469 391 1925 391 
Q 2381 391 2643 752 
Q 2906 1113 2906 1747 
Q 2906 2381 2643 2742 
Q 2381 3103 1925 3103 
Q 1469 3103 1208 2742 
Q 947 2381 947 1747 
z
" transform="scale(0.015625)"/>
      <path id="DejaVuSans-74" d="M 1172 4494 
L 1172 3500 
L 2356 3500 
L 2356 3053 
L 1172 3053 
L 1172 1153 
Q 1172 725 1289 603 
Q 1406 481 1766 481 
L 2356 481 
L 2356 0 
L 1766 0 
Q 1100 0 847 248 
Q 594 497 594 1153 
L 594 3053 
L 172 3053 
L 172 3500 
L 594 3500 
L 594 4494 
L 1172 4494 
z
" transform="scale(0.015625)"/>
      <path id="DejaVuSans-6e" d="M 3513 2113 
L 3513 0 
L 2938 0 
L 2938 2094 
Q 2938 2591 2744 2837 
Q 2550 3084 2163 3084 
Q 1697 3084 1428 2787 
Q 1159 2491 1159 1978 
L 1159 0 
L 581 0 
L 581 3500 
L 1159 3500 
L 1159 2956 
Q 1366 3272 1645 3428 
Q 1925 3584 2291 3584 
Q 2894 3584 3203 3211 
Q 3513 2838 3513 2113 
z
" transform="scale(0.015625)"/>
      <path id="DejaVuSans-20" transform="scale(0.015625)"/>
     </defs>
     <use xlink:href="#DejaVuSans-56"/>
     <use xlink:href="#DejaVuSans-61" x="60.658203"/>
     <use xlink:href="#DejaVuSans-6c" x="121.9375"/>
     <use xlink:href="#DejaVuSans-69" x="149.720703"/>
     <use xlink:href="#DejaVuSans-64" x="177.503906"/>
     <use xlink:href="#DejaVuSans-61" x="240.980469"/>
     <use xlink:href="#DejaVuSans-74" x="302.259766"/>
     <use xlink:href="#DejaVuSans-69" x="341.46875"/>
     <use xlink:href="#DejaVuSans-6f" x="369.251953"/>
     <use xlink:href="#DejaVuSans-6e" x="430.433594"/>
     <use xlink:href="#DejaVuSans-20" x="493.8125"/>
     <use xlink:href="#DejaVuSans-4c" x="525.599609"/>
     <use xlink:href="#DejaVuSans-6f" x="579.5625"/>
     <use xlink:href="#DejaVuSans-73" x="640.744141"/>
     <use xlink:href="#DejaVuSans-73" x="692.84375"/>
    </g>
   </g>
   <g id="legend_1">
    <g id="patch_7">
     <path d="M 524.360937 118.5525 
L 641 118.5525 
Q 643 118.5525 643 116.5525 
L 643 58.84 
Q 643 56.84 641 56.84 
L 524.360937 56.84 
Q 522.360937 56.84 522.360937 58.84 
L 522.360937 116.5525 
Q 522.360937 118.5525 524.360937 118.5525 
z
" style="fill: #ffffff; opacity: 0.8; stroke: #cccccc; stroke-linejoin: miter"/>
    </g>
    <g id="line2d_33">
     <path d="M 526.360937 64.938438 
L 536.360937 64.938438 
L 546.360937 64.938438 
" style="fill: none; stroke: #1f77b4; stroke-width: 1.5; stroke-linecap: square"/>
    </g>
    <g id="text_18">
     <!-- CNN-LSTM -->
     <g transform="translate(554.360937 68.438438)scale(0.1 -0.1)">
      <defs>
       <path id="DejaVuSans-43" d="M 4122 4306 
L 4122 3641 
Q 3803 3938 3442 4084 
Q 3081 4231 2675 4231 
Q 1875 4231 1450 3742 
Q 1025 3253 1025 2328 
Q 1025 1406 1450 917 
Q 1875 428 2675 428 
Q 3081 428 3442 575 
Q 3803 722 4122 1019 
L 4122 359 
Q 3791 134 3420 21 
Q 3050 -91 2638 -91 
Q 1578 -91 968 557 
Q 359 1206 359 2328 
Q 359 3453 968 4101 
Q 1578 4750 2638 4750 
Q 3056 4750 3426 4639 
Q 3797 4528 4122 4306 
z
" transform="scale(0.015625)"/>
       <path id="DejaVuSans-4e" d="M 628 4666 
L 1478 4666 
L 3547 763 
L 3547 4666 
L 4159 4666 
L 4159 0 
L 3309 0 
L 1241 3903 
L 1241 0 
L 628 0 
L 628 4666 
z
" transform="scale(0.015625)"/>
       <path id="DejaVuSans-2d" d="M 313 2009 
L 1997 2009 
L 1997 1497 
L 313 1497 
L 313 2009 
z
" transform="scale(0.015625)"/>
       <path id="DejaVuSans-53" d="M 3425 4513 
L 3425 3897 
Q 3066 4069 2747 4153 
Q 2428 4238 2131 4238 
Q 1616 4238 1336 4038 
Q 1056 3838 1056 3469 
Q 1056 3159 1242 3001 
Q 1428 2844 1947 2747 
L 2328 2669 
Q 3034 2534 3370 2195 
Q 3706 1856 3706 1288 
Q 3706 609 3251 259 
Q 2797 -91 1919 -91 
Q 1588 -91 1214 -16 
Q 841 59 441 206 
L 441 856 
Q 825 641 1194 531 
Q 1563 422 1919 422 
Q 2459 422 2753 634 
Q 3047 847 3047 1241 
Q 3047 1584 2836 1778 
Q 2625 1972 2144 2069 
L 1759 2144 
Q 1053 2284 737 2584 
Q 422 2884 422 3419 
Q 422 4038 858 4394 
Q 1294 4750 2059 4750 
Q 2388 4750 2728 4690 
Q 3069 4631 3425 4513 
z
" transform="scale(0.015625)"/>
       <path id="DejaVuSans-54" d="M -19 4666 
L 3928 4666 
L 3928 4134 
L 2272 4134 
L 2272 0 
L 1638 0 
L 1638 4134 
L -19 4134 
L -19 4666 
z
" transform="scale(0.015625)"/>
       <path id="DejaVuSans-4d" d="M 628 4666 
L 1569 4666 
L 2759 1491 
L 3956 4666 
L 4897 4666 
L 4897 0 
L 4281 0 
L 4281 4097 
L 3078 897 
L 2444 897 
L 1241 4097 
L 1241 0 
L 628 0 
L 628 4666 
z
" transform="scale(0.015625)"/>
      </defs>
      <use xlink:href="#DejaVuSans-43"/>
      <use xlink:href="#DejaVuSans-4e" x="69.824219"/>
      <use xlink:href="#DejaVuSans-4e" x="144.628906"/>
      <use xlink:href="#DejaVuSans-2d" x="219.433594"/>
      <use xlink:href="#DejaVuSans-4c" x="255.517578"/>
      <use xlink:href="#DejaVuSans-53" x="311.230469"/>
      <use xlink:href="#DejaVuSans-54" x="374.707031"/>
      <use xlink:href="#DejaVuSans-4d" x="435.791016"/>
     </g>
    </g>
    <g id="line2d_34">
     <path d="M 526.360937 79.616563 
L 536.360937 79.616563 
L 546.360937 79.616563 
" style="fill: none; stroke: #ff7f0e; stroke-width: 1.5; stroke-linecap: square"/>
    </g>
    <g id="text_19">
     <!-- CNN-Transformer -->
     <g transform="translate(554.360937 83.116563)scale(0.1 -0.1)">
      <defs>
       <path id="DejaVuSans-72" d="M 2631 2963 
Q 2534 3019 2420 3045 
Q 2306 3072 2169 3072 
Q 1681 3072 1420 2755 
Q 1159 2438 1159 1844 
L 1159 0 
L 581 0 
L 581 3500 
L 1159 3500 
L 1159 2956 
Q 1341 3275 1631 3429 
Q 1922 3584 2338 3584 
Q 2397 3584 2469 3576 
Q 2541 3569 2628 3553 
L 2631 2963 
z
" transform="scale(0.015625)"/>
       <path id="DejaVuSans-66" d="M 2375 4863 
L 2375 4384 
L 1825 4384 
Q 1516 4384 1395 4259 
Q 1275 4134 1275 3809 
L 1275 3500 
L 2222 3500 
L 2222 3053 
L 1275 3053 
L 1275 0 
L 697 0 
L 697 3053 
L 147 3053 
L 147 3500 
L 697 3500 
L 697 3744 
Q 697 4328 969 4595 
Q 1241 4863 1831 4863 
L 2375 4863 
z
" transform="scale(0.015625)"/>
       <path id="DejaVuSans-6d" d="M 3328 2828 
Q 3544 3216 3844 3400 
Q 4144 3584 4550 3584 
Q 5097 3584 5394 3201 
Q 5691 2819 5691 2113 
L 5691 0 
L 5113 0 
L 5113 2094 
Q 5113 2597 4934 2840 
Q 4756 3084 4391 3084 
Q 3944 3084 3684 2787 
Q 3425 2491 3425 1978 
L 3425 0 
L 2847 0 
L 2847 2094 
Q 2847 2600 2669 2842 
Q 2491 3084 2119 3084 
Q 1678 3084 1418 2786 
Q 1159 2488 1159 1978 
L 1159 0 
L 581 0 
L 581 3500 
L 1159 3500 
L 1159 2956 
Q 1356 3278 1631 3431 
Q 1906 3584 2284 3584 
Q 2666 3584 2933 3390 
Q 3200 3197 3328 2828 
z
" transform="scale(0.015625)"/>
       <path id="DejaVuSans-65" d="M 3597 1894 
L 3597 1613 
L 953 1613 
Q 991 1019 1311 708 
Q 1631 397 2203 397 
Q 2534 397 2845 478 
Q 3156 559 3463 722 
L 3463 178 
Q 3153 47 2828 -22 
Q 2503 -91 2169 -91 
Q 1331 -91 842 396 
Q 353 884 353 1716 
Q 353 2575 817 3079 
Q 1281 3584 2069 3584 
Q 2775 3584 3186 3129 
Q 3597 2675 3597 1894 
z
M 3022 2063 
Q 3016 2534 2758 2815 
Q 2500 3097 2075 3097 
Q 1594 3097 1305 2825 
Q 1016 2553 972 2059 
L 3022 2063 
z
" transform="scale(0.015625)"/>
      </defs>
      <use xlink:href="#DejaVuSans-43"/>
      <use xlink:href="#DejaVuSans-4e" x="69.824219"/>
      <use xlink:href="#DejaVuSans-4e" x="144.628906"/>
      <use xlink:href="#DejaVuSans-2d" x="219.433594"/>
      <use xlink:href="#DejaVuSans-54" x="246.392578"/>
      <use xlink:href="#DejaVuSans-72" x="292.726562"/>
      <use xlink:href="#DejaVuSans-61" x="333.839844"/>
      <use xlink:href="#DejaVuSans-6e" x="395.119141"/>
      <use xlink:href="#DejaVuSans-73" x="458.498047"/>
      <use xlink:href="#DejaVuSans-66" x="510.597656"/>
      <use xlink:href="#DejaVuSans-6f" x="545.802734"/>
      <use xlink:href="#DejaVuSans-72" x="606.984375"/>
      <use xlink:href="#DejaVuSans-6d" x="646.347656"/>
      <use xlink:href="#DejaVuSans-65" x="743.759766"/>
      <use xlink:href="#DejaVuSans-72" x="805.283203"/>
     </g>
    </g>
    <g id="line2d_35">
     <path d="M 526.360937 94.294688 
L 536.360937 94.294688 
L 546.360937 94.294688 
" style="fill: none; stroke: #2ca02c; stroke-width: 1.5; stroke-linecap: square"/>
    </g>
    <g id="text_20">
     <!-- Conv1D -->
     <g transform="translate(554.360937 97.794688)scale(0.1 -0.1)">
      <defs>
       <path id="DejaVuSans-76" d="M 191 3500 
L 800 3500 
L 1894 563 
L 2988 3500 
L 3597 3500 
L 2284 0 
L 1503 0 
L 191 3500 
z
" transform="scale(0.015625)"/>
       <path id="DejaVuSans-44" d="M 1259 4147 
L 1259 519 
L 2022 519 
Q 2988 519 3436 956 
Q 3884 1394 3884 2338 
Q 3884 3275 3436 3711 
Q 2988 4147 2022 4147 
L 1259 4147 
z
M 628 4666 
L 1925 4666 
Q 3281 4666 3915 4102 
Q 4550 3538 4550 2338 
Q 4550 1131 3912 565 
Q 3275 0 1925 0 
L 628 0 
L 628 4666 
z
" transform="scale(0.015625)"/>
      </defs>
      <use xlink:href="#DejaVuSans-43"/>
      <use xlink:href="#DejaVuSans-6f" x="69.824219"/>
      <use xlink:href="#DejaVuSans-6e" x="131.005859"/>
      <use xlink:href="#DejaVuSans-76" x="194.384766"/>
      <use xlink:href="#DejaVuSans-31" x="253.564453"/>
      <use xlink:href="#DejaVuSans-44" x="317.1875"/>
     </g>
    </g>
    <g id="line2d_36">
     <path d="M 526.360937 108.972813 
L 536.360937 108.972813 
L 546.360937 108.972813 
" style="fill: none; stroke: #d62728; stroke-width: 1.5; stroke-linecap: square"/>
    </g>
    <g id="text_21">
     <!-- MLP -->
     <g transform="translate(554.360937 112.472813)scale(0.1 -0.1)">
      <defs>
       <path id="DejaVuSans-50" d="M 1259 4147 
L 1259 2394 
L 2053 2394 
Q 2494 2394 2734 2622 
Q 2975 2850 2975 3272 
Q 2975 3691 2734 3919 
Q 2494 4147 2053 4147 
L 1259 4147 
z
M 628 4666 
L 2053 4666 
Q 2838 4666 3239 4311 
Q 3641 3956 3641 3272 
Q 3641 2581 3239 2228 
Q 2838 1875 2053 1875 
L 1259 1875 
L 1259 0 
L 628 0 
L 628 4666 
z
" transform="scale(0.015625)"/>
      </defs>
      <use xlink:href="#DejaVuSans-4d"/>
      <use xlink:href="#DejaVuSans-4c" x="86.279297"/>
      <use xlink:href="#DejaVuSans-50" x="141.992188"/>
     </g>
    </g>
   </g>
  </g>
 </g>
 <defs>
  <clipPath id="p3f5b0bb27c">
   <rect x="90" y="51.84" width="558" height="332.64"/>
  </clipPath>
 </defs>
</svg>
