<?xml version="1.0" encoding="utf-8" standalone="no"?>
<!DOCTYPE svg PUBLIC "-//W3C//DTD SVG 1.1//EN"
  "http://www.w3.org/Graphics/SVG/1.1/DTD/svg11.dtd">
<svg xmlns:xlink="http://www.w3.org/1999/xlink" width="720pt" height="432pt" viewBox="0 0 720 432" xmlns="http://www.w3.org/2000/svg" version="1.1">
 <metadata>
  <rdf:RDF xmlns:dc="http://purl.org/dc/elements/1.1/" xmlns:cc="http://creativecommons.org/ns#" xmlns:rdf="http://www.w3.org/1999/02/22-rdf-syntax-ns#">
   <cc:Work>
    <dc:type rdf:resource="http://purl.org/dc/dcmitype/StillImage"/>
    <dc:date>2025-01-27T23:58:27.305667</dc:date>
    <dc:format>image/svg+xml</dc:format>
    <dc:creator>
     <cc:Agent>
      <dc:title>Matplotlib v3.5.1, https://matplotlib.org/</dc:title>
     </cc:Agent>
    </dc:creator>
   </cc:Work>
  </rdf:RDF>
 </metadata>
 <defs>
  <style type="text/css">*{stroke-linejoin: round; stroke-linecap: butt}</style>
 </defs>
 <g id="figure_1">
  <g id="patch_1">
   <path d="M 0 432 
L 720 432 
L 720 0 
L 0 0 
z
" style="fill: #ffffff"/>
  </g>
  <g id="axes_1">
   <g id="patch_2">
    <path d="M 90 384.48 
L 648 384.48 
L 648 51.84 
L 90 51.84 
z
" style="fill: #ffffff"/>
   </g>
   <g id="matplotlib.axis_1">
    <g id="xtick_1">
     <g id="line2d_1">
      <path d="M 115.363636 384.48 
L 115.363636 51.84 
" clip-path="url(#pbad1e0568b)" style="fill: none; stroke: #b0b0b0; stroke-width: 0.8; stroke-linecap: square"/>
     </g>
     <g id="line2d_2">
      <defs>
       <path id="ma5fd27fd58" d="M 0 0 
L 0 3.5 
" style="stroke: #000000; stroke-width: 0.8"/>
      </defs>
      <g>
       <use xlink:href="#ma5fd27fd58" x="115.363636" y="384.48" style="stroke: #000000; stroke-width: 0.8"/>
      </g>
     </g>
     <g id="text_1">
      <!-- 0 -->
      <g transform="translate(112.182386 399.078438)scale(0.1 -0.1)">
       <defs>
        <path id="DejaVuSans-30" d="M 2034 4250 
Q 1547 4250 1301 3770 
Q 1056 3291 1056 2328 
Q 1056 1369 1301 889 
Q 1547 409 2034 409 
Q 2525 409 2770 889 
Q 3016 1369 3016 2328 
Q 3016 3291 2770 3770 
Q 2525 4250 2034 4250 
z
M 2034 4750 
Q 2819 4750 3233 4129 
Q 3647 3509 3647 2328 
Q 3647 1150 3233 529 
Q 2819 -91 2034 -91 
Q 1250 -91 836 529 
Q 422 1150 422 2328 
Q 422 3509 836 4129 
Q 1250 4750 2034 4750 
z
" transform="scale(0.015625)"/>
       </defs>
       <use xlink:href="#DejaVuSans-30"/>
      </g>
     </g>
    </g>
    <g id="xtick_2">
     <g id="line2d_3">
      <path d="M 179.091366 384.48 
L 179.091366 51.84 
" clip-path="url(#pbad1e0568b)" style="fill: none; stroke: #b0b0b0; stroke-width: 0.8; stroke-linecap: square"/>
     </g>
     <g id="line2d_4">
      <g>
       <use xlink:href="#ma5fd27fd58" x="179.091366" y="384.48" style="stroke: #000000; stroke-width: 0.8"/>
      </g>
     </g>
     <g id="text_2">
      <!-- 25 -->
      <g transform="translate(172.728866 399.078438)scale(0.1 -0.1)">
       <defs>
        <path id="DejaVuSans-32" d="M 1228 531 
L 3431 531 
L 3431 0 
L 469 0 
L 469 531 
Q 828 903 1448 1529 
Q 2069 2156 2228 2338 
Q 2531 2678 2651 2914 
Q 2772 3150 2772 3378 
Q 2772 3750 2511 3984 
Q 2250 4219 1831 4219 
Q 1534 4219 1204 4116 
Q 875 4013 500 3803 
L 500 4441 
Q 881 4594 1212 4672 
Q 1544 4750 1819 4750 
Q 2544 4750 2975 4387 
Q 3406 4025 3406 3419 
Q 3406 3131 3298 2873 
Q 3191 2616 2906 2266 
Q 2828 2175 2409 1742 
Q 1991 1309 1228 531 
z
" transform="scale(0.015625)"/>
        <path id="DejaVuSans-35" d="M 691 4666 
L 3169 4666 
L 3169 4134 
L 1269 4134 
L 1269 2991 
Q 1406 3038 1543 3061 
Q 1681 3084 1819 3084 
Q 2600 3084 3056 2656 
Q 3513 2228 3513 1497 
Q 3513 744 3044 326 
Q 2575 -91 1722 -91 
Q 1428 -91 1123 -41 
Q 819 9 494 109 
L 494 744 
Q 775 591 1075 516 
Q 1375 441 1709 441 
Q 2250 441 2565 725 
Q 2881 1009 2881 1497 
Q 2881 1984 2565 2268 
Q 2250 2553 1709 2553 
Q 1456 2553 1204 2497 
Q 953 2441 691 2322 
L 691 4666 
z
" transform="scale(0.015625)"/>
       </defs>
       <use xlink:href="#DejaVuSans-32"/>
       <use xlink:href="#DejaVuSans-35" x="63.623047"/>
      </g>
     </g>
    </g>
    <g id="xtick_3">
     <g id="line2d_5">
      <path d="M 242.819095 384.48 
L 242.819095 51.84 
" clip-path="url(#pbad1e0568b)" style="fill: none; stroke: #b0b0b0; stroke-width: 0.8; stroke-linecap: square"/>
     </g>
     <g id="line2d_6">
      <g>
       <use xlink:href="#ma5fd27fd58" x="242.819095" y="384.48" style="stroke: #000000; stroke-width: 0.8"/>
      </g>
     </g>
     <g id="text_3">
      <!-- 50 -->
      <g transform="translate(236.456595 399.078438)scale(0.1 -0.1)">
       <use xlink:href="#DejaVuSans-35"/>
       <use xlink:href="#DejaVuSans-30" x="63.623047"/>
      </g>
     </g>
    </g>
    <g id="xtick_4">
     <g id="line2d_7">
      <path d="M 306.546825 384.48 
L 306.546825 51.84 
" clip-path="url(#pbad1e0568b)" style="fill: none; stroke: #b0b0b0; stroke-width: 0.8; stroke-linecap: square"/>
     </g>
     <g id="line2d_8">
      <g>
       <use xlink:href="#ma5fd27fd58" x="306.546825" y="384.48" style="stroke: #000000; stroke-width: 0.8"/>
      </g>
     </g>
     <g id="text_4">
      <!-- 75 -->
      <g transform="translate(300.184325 399.078438)scale(0.1 -0.1)">
       <defs>
        <path id="DejaVuSans-37" d="M 525 4666 
L 3525 4666 
L 3525 4397 
L 1831 0 
L 1172 0 
L 2766 4134 
L 525 4134 
L 525 4666 
z
" transform="scale(0.015625)"/>
       </defs>
       <use xlink:href="#DejaVuSans-37"/>
       <use xlink:href="#DejaVuSans-35" x="63.623047"/>
      </g>
     </g>
    </g>
    <g id="xtick_5">
     <g id="line2d_9">
      <path d="M 370.274555 384.48 
L 370.274555 51.84 
" clip-path="url(#pbad1e0568b)" style="fill: none; stroke: #b0b0b0; stroke-width: 0.8; stroke-linecap: square"/>
     </g>
     <g id="line2d_10">
      <g>
       <use xlink:href="#ma5fd27fd58" x="370.274555" y="384.48" style="stroke: #000000; stroke-width: 0.8"/>
      </g>
     </g>
     <g id="text_5">
      <!-- 100 -->
      <g transform="translate(360.730805 399.078438)scale(0.1 -0.1)">
       <defs>
        <path id="DejaVuSans-31" d="M 794 531 
L 1825 531 
L 1825 4091 
L 703 3866 
L 703 4441 
L 1819 4666 
L 2450 4666 
L 2450 531 
L 3481 531 
L 3481 0 
L 794 0 
L 794 531 
z
" transform="scale(0.015625)"/>
       </defs>
       <use xlink:href="#DejaVuSans-31"/>
       <use xlink:href="#DejaVuSans-30" x="63.623047"/>
       <use xlink:href="#DejaVuSans-30" x="127.246094"/>
      </g>
     </g>
    </g>
    <g id="xtick_6">
     <g id="line2d_11">
      <path d="M 434.002284 384.48 
L 434.002284 51.84 
" clip-path="url(#pbad1e0568b)" style="fill: none; stroke: #b0b0b0; stroke-width: 0.8; stroke-linecap: square"/>
     </g>
     <g id="line2d_12">
      <g>
       <use xlink:href="#ma5fd27fd58" x="434.002284" y="384.48" style="stroke: #000000; stroke-width: 0.8"/>
      </g>
     </g>
     <g id="text_6">
      <!-- 125 -->
      <g transform="translate(424.458534 399.078438)scale(0.1 -0.1)">
       <use xlink:href="#DejaVuSans-31"/>
       <use xlink:href="#DejaVuSans-32" x="63.623047"/>
       <use xlink:href="#DejaVuSans-35" x="127.246094"/>
      </g>
     </g>
    </g>
    <g id="xtick_7">
     <g id="line2d_13">
      <path d="M 497.730014 384.48 
L 497.730014 51.84 
" clip-path="url(#pbad1e0568b)" style="fill: none; stroke: #b0b0b0; stroke-width: 0.8; stroke-linecap: square"/>
     </g>
     <g id="line2d_14">
      <g>
       <use xlink:href="#ma5fd27fd58" x="497.730014" y="384.48" style="stroke: #000000; stroke-width: 0.8"/>
      </g>
     </g>
     <g id="text_7">
      <!-- 150 -->
      <g transform="translate(488.186264 399.078438)scale(0.1 -0.1)">
       <use xlink:href="#DejaVuSans-31"/>
       <use xlink:href="#DejaVuSans-35" x="63.623047"/>
       <use xlink:href="#DejaVuSans-30" x="127.246094"/>
      </g>
     </g>
    </g>
    <g id="xtick_8">
     <g id="line2d_15">
      <path d="M 561.457743 384.48 
L 561.457743 51.84 
" clip-path="url(#pbad1e0568b)" style="fill: none; stroke: #b0b0b0; stroke-width: 0.8; stroke-linecap: square"/>
     </g>
     <g id="line2d_16">
      <g>
       <use xlink:href="#ma5fd27fd58" x="561.457743" y="384.48" style="stroke: #000000; stroke-width: 0.8"/>
      </g>
     </g>
     <g id="text_8">
      <!-- 175 -->
      <g transform="translate(551.913993 399.078438)scale(0.1 -0.1)">
       <use xlink:href="#DejaVuSans-31"/>
       <use xlink:href="#DejaVuSans-37" x="63.623047"/>
       <use xlink:href="#DejaVuSans-35" x="127.246094"/>
      </g>
     </g>
    </g>
    <g id="xtick_9">
     <g id="line2d_17">
      <path d="M 625.185473 384.48 
L 625.185473 51.84 
" clip-path="url(#pbad1e0568b)" style="fill: none; stroke: #b0b0b0; stroke-width: 0.8; stroke-linecap: square"/>
     </g>
     <g id="line2d_18">
      <g>
       <use xlink:href="#ma5fd27fd58" x="625.185473" y="384.48" style="stroke: #000000; stroke-width: 0.8"/>
      </g>
     </g>
     <g id="text_9">
      <!-- 200 -->
      <g transform="translate(615.641723 399.078438)scale(0.1 -0.1)">
       <use xlink:href="#DejaVuSans-32"/>
       <use xlink:href="#DejaVuSans-30" x="63.623047"/>
       <use xlink:href="#DejaVuSans-30" x="127.246094"/>
      </g>
     </g>
    </g>
    <g id="text_10">
     <!-- Epoch -->
     <g transform="translate(353.689062 412.756563)scale(0.1 -0.1)">
      <defs>
       <path id="DejaVuSans-45" d="M 628 4666 
L 3578 4666 
L 3578 4134 
L 1259 4134 
L 1259 2753 
L 3481 2753 
L 3481 2222 
L 1259 2222 
L 1259 531 
L 3634 531 
L 3634 0 
L 628 0 
L 628 4666 
z
" transform="scale(0.015625)"/>
       <path id="DejaVuSans-70" d="M 1159 525 
L 1159 -1331 
L 581 -1331 
L 581 3500 
L 1159 3500 
L 1159 2969 
Q 1341 3281 1617 3432 
Q 1894 3584 2278 3584 
Q 2916 3584 3314 3078 
Q 3713 2572 3713 1747 
Q 3713 922 3314 415 
Q 2916 -91 2278 -91 
Q 1894 -91 1617 61 
Q 1341 213 1159 525 
z
M 3116 1747 
Q 3116 2381 2855 2742 
Q 2594 3103 2138 3103 
Q 1681 3103 1420 2742 
Q 1159 2381 1159 1747 
Q 1159 1113 1420 752 
Q 1681 391 2138 391 
Q 2594 391 2855 752 
Q 3116 1113 3116 1747 
z
" transform="scale(0.015625)"/>
       <path id="DejaVuSans-6f" d="M 1959 3097 
Q 1497 3097 1228 2736 
Q 959 2375 959 1747 
Q 959 1119 1226 758 
Q 1494 397 1959 397 
Q 2419 397 2687 759 
Q 2956 1122 2956 1747 
Q 2956 2369 2687 2733 
Q 2419 3097 1959 3097 
z
M 1959 3584 
Q 2709 3584 3137 3096 
Q 3566 2609 3566 1747 
Q 3566 888 3137 398 
Q 2709 -91 1959 -91 
Q 1206 -91 779 398 
Q 353 888 353 1747 
Q 353 2609 779 3096 
Q 1206 3584 1959 3584 
z
" transform="scale(0.015625)"/>
       <path id="DejaVuSans-63" d="M 3122 3366 
L 3122 2828 
Q 2878 2963 2633 3030 
Q 2388 3097 2138 3097 
Q 1578 3097 1268 2742 
Q 959 2388 959 1747 
Q 959 1106 1268 751 
Q 1578 397 2138 397 
Q 2388 397 2633 464 
Q 2878 531 3122 666 
L 3122 134 
Q 2881 22 2623 -34 
Q 2366 -91 2075 -91 
Q 1284 -91 818 406 
Q 353 903 353 1747 
Q 353 2603 823 3093 
Q 1294 3584 2113 3584 
Q 2378 3584 2631 3529 
Q 2884 3475 3122 3366 
z
" transform="scale(0.015625)"/>
       <path id="DejaVuSans-68" d="M 3513 2113 
L 3513 0 
L 2938 0 
L 2938 2094 
Q 2938 2591 2744 2837 
Q 2550 3084 2163 3084 
Q 1697 3084 1428 2787 
Q 1159 2491 1159 1978 
L 1159 0 
L 581 0 
L 581 4863 
L 1159 4863 
L 1159 2956 
Q 1366 3272 1645 3428 
Q 1925 3584 2291 3584 
Q 2894 3584 3203 3211 
Q 3513 2838 3513 2113 
z
" transform="scale(0.015625)"/>
      </defs>
      <use xlink:href="#DejaVuSans-45"/>
      <use xlink:href="#DejaVuSans-70" x="63.183594"/>
      <use xlink:href="#DejaVuSans-6f" x="126.660156"/>
      <use xlink:href="#DejaVuSans-63" x="187.841797"/>
      <use xlink:href="#DejaVuSans-68" x="242.822266"/>
     </g>
    </g>
   </g>
   <g id="matplotlib.axis_2">
    <g id="ytick_1">
     <g id="line2d_19">
      <path d="M 90 384.241016 
L 648 384.241016 
" clip-path="url(#pbad1e0568b)" style="fill: none; stroke: #b0b0b0; stroke-width: 0.8; stroke-linecap: square"/>
     </g>
     <g id="line2d_20">
      <defs>
       <path id="m59b49e3c3a" d="M 0 0 
L -3.5 0 
" style="stroke: #000000; stroke-width: 0.8"/>
      </defs>
      <g>
       <use xlink:href="#m59b49e3c3a" x="90" y="384.241016" style="stroke: #000000; stroke-width: 0.8"/>
      </g>
     </g>
     <g id="text_11">
      <!-- 0.0 -->
      <g transform="translate(67.096875 388.040235)scale(0.1 -0.1)">
       <defs>
        <path id="DejaVuSans-2e" d="M 684 794 
L 1344 794 
L 1344 0 
L 684 0 
L 684 794 
z
" transform="scale(0.015625)"/>
       </defs>
       <use xlink:href="#DejaVuSans-30"/>
       <use xlink:href="#DejaVuSans-2e" x="63.623047"/>
       <use xlink:href="#DejaVuSans-30" x="95.410156"/>
      </g>
     </g>
    </g>
    <g id="ytick_2">
     <g id="line2d_21">
      <path d="M 90 336.652988 
L 648 336.652988 
" clip-path="url(#pbad1e0568b)" style="fill: none; stroke: #b0b0b0; stroke-width: 0.8; stroke-linecap: square"/>
     </g>
     <g id="line2d_22">
      <g>
       <use xlink:href="#m59b49e3c3a" x="90" y="336.652988" style="stroke: #000000; stroke-width: 0.8"/>
      </g>
     </g>
     <g id="text_12">
      <!-- 0.2 -->
      <g transform="translate(67.096875 340.452207)scale(0.1 -0.1)">
       <use xlink:href="#DejaVuSans-30"/>
       <use xlink:href="#DejaVuSans-2e" x="63.623047"/>
       <use xlink:href="#DejaVuSans-32" x="95.410156"/>
      </g>
     </g>
    </g>
    <g id="ytick_3">
     <g id="line2d_23">
      <path d="M 90 289.06496 
L 648 289.06496 
" clip-path="url(#pbad1e0568b)" style="fill: none; stroke: #b0b0b0; stroke-width: 0.8; stroke-linecap: square"/>
     </g>
     <g id="line2d_24">
      <g>
       <use xlink:href="#m59b49e3c3a" x="90" y="289.06496" style="stroke: #000000; stroke-width: 0.8"/>
      </g>
     </g>
     <g id="text_13">
      <!-- 0.4 -->
      <g transform="translate(67.096875 292.864179)scale(0.1 -0.1)">
       <defs>
        <path id="DejaVuSans-34" d="M 2419 4116 
L 825 1625 
L 2419 1625 
L 2419 4116 
z
M 2253 4666 
L 3047 4666 
L 3047 1625 
L 3713 1625 
L 3713 1100 
L 3047 1100 
L 3047 0 
L 2419 0 
L 2419 1100 
L 313 1100 
L 313 1709 
L 2253 4666 
z
" transform="scale(0.015625)"/>
       </defs>
       <use xlink:href="#DejaVuSans-30"/>
       <use xlink:href="#DejaVuSans-2e" x="63.623047"/>
       <use xlink:href="#DejaVuSans-34" x="95.410156"/>
      </g>
     </g>
    </g>
    <g id="ytick_4">
     <g id="line2d_25">
      <path d="M 90 241.476932 
L 648 241.476932 
" clip-path="url(#pbad1e0568b)" style="fill: none; stroke: #b0b0b0; stroke-width: 0.8; stroke-linecap: square"/>
     </g>
     <g id="line2d_26">
      <g>
       <use xlink:href="#m59b49e3c3a" x="90" y="241.476932" style="stroke: #000000; stroke-width: 0.8"/>
      </g>
     </g>
     <g id="text_14">
      <!-- 0.6 -->
      <g transform="translate(67.096875 245.27615)scale(0.1 -0.1)">
       <defs>
        <path id="DejaVuSans-36" d="M 2113 2584 
Q 1688 2584 1439 2293 
Q 1191 2003 1191 1497 
Q 1191 994 1439 701 
Q 1688 409 2113 409 
Q 2538 409 2786 701 
Q 3034 994 3034 1497 
Q 3034 2003 2786 2293 
Q 2538 2584 2113 2584 
z
M 3366 4563 
L 3366 3988 
Q 3128 4100 2886 4159 
Q 2644 4219 2406 4219 
Q 1781 4219 1451 3797 
Q 1122 3375 1075 2522 
Q 1259 2794 1537 2939 
Q 1816 3084 2150 3084 
Q 2853 3084 3261 2657 
Q 3669 2231 3669 1497 
Q 3669 778 3244 343 
Q 2819 -91 2113 -91 
Q 1303 -91 875 529 
Q 447 1150 447 2328 
Q 447 3434 972 4092 
Q 1497 4750 2381 4750 
Q 2619 4750 2861 4703 
Q 3103 4656 3366 4563 
z
" transform="scale(0.015625)"/>
       </defs>
       <use xlink:href="#DejaVuSans-30"/>
       <use xlink:href="#DejaVuSans-2e" x="63.623047"/>
       <use xlink:href="#DejaVuSans-36" x="95.410156"/>
      </g>
     </g>
    </g>
    <g id="ytick_5">
     <g id="line2d_27">
      <path d="M 90 193.888903 
L 648 193.888903 
" clip-path="url(#pbad1e0568b)" style="fill: none; stroke: #b0b0b0; stroke-width: 0.8; stroke-linecap: square"/>
     </g>
     <g id="line2d_28">
      <g>
       <use xlink:href="#m59b49e3c3a" x="90" y="193.888903" style="stroke: #000000; stroke-width: 0.8"/>
      </g>
     </g>
     <g id="text_15">
      <!-- 0.8 -->
      <g transform="translate(67.096875 197.688122)scale(0.1 -0.1)">
       <defs>
        <path id="DejaVuSans-38" d="M 2034 2216 
Q 1584 2216 1326 1975 
Q 1069 1734 1069 1313 
Q 1069 891 1326 650 
Q 1584 409 2034 409 
Q 2484 409 2743 651 
Q 3003 894 3003 1313 
Q 3003 1734 2745 1975 
Q 2488 2216 2034 2216 
z
M 1403 2484 
Q 997 2584 770 2862 
Q 544 3141 544 3541 
Q 544 4100 942 4425 
Q 1341 4750 2034 4750 
Q 2731 4750 3128 4425 
Q 3525 4100 3525 3541 
Q 3525 3141 3298 2862 
Q 3072 2584 2669 2484 
Q 3125 2378 3379 2068 
Q 3634 1759 3634 1313 
Q 3634 634 3220 271 
Q 2806 -91 2034 -91 
Q 1263 -91 848 271 
Q 434 634 434 1313 
Q 434 1759 690 2068 
Q 947 2378 1403 2484 
z
M 1172 3481 
Q 1172 3119 1398 2916 
Q 1625 2713 2034 2713 
Q 2441 2713 2670 2916 
Q 2900 3119 2900 3481 
Q 2900 3844 2670 4047 
Q 2441 4250 2034 4250 
Q 1625 4250 1398 4047 
Q 1172 3844 1172 3481 
z
" transform="scale(0.015625)"/>
       </defs>
       <use xlink:href="#DejaVuSans-30"/>
       <use xlink:href="#DejaVuSans-2e" x="63.623047"/>
       <use xlink:href="#DejaVuSans-38" x="95.410156"/>
      </g>
     </g>
    </g>
    <g id="ytick_6">
     <g id="line2d_29">
      <path d="M 90 146.300875 
L 648 146.300875 
" clip-path="url(#pbad1e0568b)" style="fill: none; stroke: #b0b0b0; stroke-width: 0.8; stroke-linecap: square"/>
     </g>
     <g id="line2d_30">
      <g>
       <use xlink:href="#m59b49e3c3a" x="90" y="146.300875" style="stroke: #000000; stroke-width: 0.8"/>
      </g>
     </g>
     <g id="text_16">
      <!-- 1.0 -->
      <g transform="translate(67.096875 150.100094)scale(0.1 -0.1)">
       <use xlink:href="#DejaVuSans-31"/>
       <use xlink:href="#DejaVuSans-2e" x="63.623047"/>
       <use xlink:href="#DejaVuSans-30" x="95.410156"/>
      </g>
     </g>
    </g>
    <g id="ytick_7">
     <g id="line2d_31">
      <path d="M 90 98.712847 
L 648 98.712847 
" clip-path="url(#pbad1e0568b)" style="fill: none; stroke: #b0b0b0; stroke-width: 0.8; stroke-linecap: square"/>
     </g>
     <g id="line2d_32">
      <g>
       <use xlink:href="#m59b49e3c3a" x="90" y="98.712847" style="stroke: #000000; stroke-width: 0.8"/>
      </g>
     </g>
     <g id="text_17">
      <!-- 1.2 -->
      <g transform="translate(67.096875 102.512066)scale(0.1 -0.1)">
       <use xlink:href="#DejaVuSans-31"/>
       <use xlink:href="#DejaVuSans-2e" x="63.623047"/>
       <use xlink:href="#DejaVuSans-32" x="95.410156"/>
      </g>
     </g>
    </g>
    <g id="text_18">
     <!-- Loss -->
     <g transform="translate(61.017187 229.127187)rotate(-90)scale(0.1 -0.1)">
      <defs>
       <path id="DejaVuSans-4c" d="M 628 4666 
L 1259 4666 
L 1259 531 
L 3531 531 
L 3531 0 
L 628 0 
L 628 4666 
z
" transform="scale(0.015625)"/>
       <path id="DejaVuSans-73" d="M 2834 3397 
L 2834 2853 
Q 2591 2978 2328 3040 
Q 2066 3103 1784 3103 
Q 1356 3103 1142 2972 
Q 928 2841 928 2578 
Q 928 2378 1081 2264 
Q 1234 2150 1697 2047 
L 1894 2003 
Q 2506 1872 2764 1633 
Q 3022 1394 3022 966 
Q 3022 478 2636 193 
Q 2250 -91 1575 -91 
Q 1294 -91 989 -36 
Q 684 19 347 128 
L 347 722 
Q 666 556 975 473 
Q 1284 391 1588 391 
Q 1994 391 2212 530 
Q 2431 669 2431 922 
Q 2431 1156 2273 1281 
Q 2116 1406 1581 1522 
L 1381 1569 
Q 847 1681 609 1914 
Q 372 2147 372 2553 
Q 372 3047 722 3315 
Q 1072 3584 1716 3584 
Q 2034 3584 2315 3537 
Q 2597 3491 2834 3397 
z
" transform="scale(0.015625)"/>
      </defs>
      <use xlink:href="#DejaVuSans-4c"/>
      <use xlink:href="#DejaVuSans-6f" x="53.962891"/>
      <use xlink:href="#DejaVuSans-73" x="115.144531"/>
      <use xlink:href="#DejaVuSans-73" x="167.244141"/>
     </g>
    </g>
   </g>
   <g id="line2d_33">
    <path d="M 115.363636 184.794448 
L 117.912746 216.302724 
L 120.461855 238.544628 
L 123.010964 254.252716 
L 125.560073 267.762251 
L 128.109182 276.481772 
L 130.658291 284.368378 
L 133.207401 288.833191 
L 135.75651 293.72609 
L 138.305619 299.362208 
L 140.854728 302.410205 
L 143.403837 308.034083 
L 145.952947 310.679912 
L 153.600274 317.102036 
L 158.698492 320.462768 
L 161.247602 323.694717 
L 163.796711 325.53903 
L 166.34582 326.158671 
L 171.444038 328.849504 
L 173.993148 329.514609 
L 176.542257 331.25086 
L 179.091366 332.406604 
L 181.640475 333.038534 
L 184.189584 332.559922 
L 186.738693 334.662372 
L 189.287803 335.858525 
L 191.836912 335.689415 
L 194.386021 335.760971 
L 196.93513 338.282744 
L 199.484239 338.415494 
L 202.033349 339.254514 
L 204.582458 339.604396 
L 207.131567 341.382013 
L 209.680676 340.930224 
L 212.229785 342.00782 
L 214.778894 342.519582 
L 217.328004 343.332918 
L 219.877113 343.384315 
L 222.426222 343.717256 
L 224.975331 344.236595 
L 227.52444 345.451231 
L 230.07355 345.261748 
L 232.622659 346.11339 
L 235.171768 346.155373 
L 240.269986 347.283178 
L 242.819095 350.410731 
L 245.368205 350.47465 
L 247.917314 351.817377 
L 250.466423 351.753291 
L 253.015532 352.506639 
L 255.564641 353.498137 
L 258.113751 353.458795 
L 260.66286 353.619059 
L 263.211969 353.501594 
L 265.761078 354.33721 
L 268.310187 354.671674 
L 270.859296 354.769392 
L 275.957515 355.570086 
L 278.506624 355.468874 
L 281.055733 356.261149 
L 283.604842 355.706644 
L 286.153952 356.254325 
L 288.703061 356.207421 
L 291.25217 356.329474 
L 293.801279 356.15818 
L 296.350388 357.220391 
L 298.899497 356.884968 
L 306.546825 357.440302 
L 309.095934 357.719414 
L 311.645043 358.196121 
L 314.194153 358.512003 
L 316.743262 358.223903 
L 324.390589 358.77931 
L 326.939698 359.339879 
L 329.488808 359.282471 
L 332.037917 359.45961 
L 337.136135 359.317169 
L 349.881681 360.136364 
L 352.43079 360.639555 
L 354.979899 360.190762 
L 357.529009 360.831107 
L 360.078118 360.787 
L 362.627227 360.582523 
L 365.176336 360.769134 
L 367.725445 360.688084 
L 370.274555 362.753516 
L 372.823664 363.468558 
L 375.372773 363.512197 
L 377.921882 363.981338 
L 380.470991 364.033649 
L 385.56921 363.773905 
L 388.118319 364.102636 
L 390.667428 364.172884 
L 393.216537 363.998805 
L 395.765646 364.416656 
L 398.314756 364.56798 
L 403.412974 364.448284 
L 405.962083 364.878949 
L 408.511192 364.701416 
L 413.609411 364.825683 
L 416.15852 364.995354 
L 418.707629 364.500574 
L 421.256738 364.817564 
L 426.354957 365.055707 
L 434.002284 365.364809 
L 436.551393 365.103517 
L 439.100503 365.157726 
L 441.649612 365.542765 
L 444.198721 365.6412 
L 446.74783 365.591101 
L 449.296939 365.830346 
L 451.846048 365.374276 
L 454.395158 365.792782 
L 456.944267 365.842277 
L 459.493376 366.010626 
L 462.042485 365.772014 
L 464.591594 365.838088 
L 467.140704 365.773556 
L 469.689813 365.586853 
L 474.788031 365.932664 
L 477.33714 365.643799 
L 479.886249 366.124975 
L 482.435359 366.246667 
L 487.533577 366.100558 
L 492.631795 366.075319 
L 495.180905 366.306296 
L 497.730014 367.330047 
L 500.279123 367.914446 
L 502.828232 368.080156 
L 505.377341 368.02546 
L 507.92645 368.254712 
L 510.47556 368.256102 
L 513.024669 368.436058 
L 515.573778 368.425083 
L 518.122887 368.56199 
L 533.417542 368.73895 
L 535.966651 368.542248 
L 538.515761 368.604603 
L 541.06487 368.841698 
L 543.613979 368.782891 
L 546.163088 368.859161 
L 548.712197 368.692246 
L 551.261307 369.113529 
L 553.810416 368.805706 
L 556.359525 368.616131 
L 561.457743 368.947204 
L 564.006852 368.949505 
L 566.555962 369.104714 
L 569.105071 368.867529 
L 571.65418 368.829815 
L 574.203289 368.563685 
L 579.301508 369.043106 
L 581.850617 368.825636 
L 584.399726 368.882623 
L 586.948835 369.322527 
L 592.047053 369.230248 
L 594.596163 368.917477 
L 597.145272 369.354107 
L 602.24349 369.279111 
L 604.792599 369.080755 
L 607.341709 369.132964 
L 609.890818 369.314484 
L 614.989036 369.143503 
L 620.087254 369.217249 
L 622.636364 369.142392 
L 622.636364 369.142392 
" clip-path="url(#pbad1e0568b)" style="fill: none; stroke: #1f77b4; stroke-width: 1.5; stroke-linecap: square"/>
   </g>
   <g id="line2d_34">
    <path d="M 115.363636 86.419217 
L 117.912746 136.016837 
L 120.461855 153.474458 
L 123.010964 177.275639 
L 125.560073 196.756512 
L 128.109182 213.2937 
L 133.207401 243.844511 
L 135.75651 253.951412 
L 138.305619 265.262351 
L 140.854728 271.172387 
L 143.403837 278.313257 
L 145.952947 284.13149 
L 148.502056 288.517988 
L 151.051165 291.782259 
L 153.600274 294.591674 
L 156.149383 299.764958 
L 158.698492 301.985281 
L 161.247602 303.924886 
L 166.34582 309.625214 
L 168.894929 312.27846 
L 171.444038 313.300403 
L 173.993148 315.62547 
L 176.542257 317.369926 
L 179.091366 318.931146 
L 181.640475 318.785075 
L 184.189584 322.571624 
L 186.738693 322.54153 
L 189.287803 323.707183 
L 191.836912 325.879747 
L 194.386021 326.559166 
L 196.93513 328.51318 
L 199.484239 328.406993 
L 204.582458 330.121415 
L 207.131567 332.106201 
L 209.680676 331.706117 
L 212.229785 332.283682 
L 214.778894 333.799214 
L 217.328004 334.440844 
L 219.877113 334.392316 
L 222.426222 335.660766 
L 224.975331 337.507789 
L 227.52444 337.483353 
L 230.07355 336.841208 
L 232.622659 338.482293 
L 235.171768 339.093477 
L 237.720877 339.187116 
L 240.269986 340.951413 
L 242.819095 343.855317 
L 245.368205 344.425437 
L 247.917314 344.780711 
L 253.015532 345.745688 
L 255.564641 345.970358 
L 263.211969 347.387698 
L 265.761078 347.492704 
L 270.859296 348.43768 
L 273.408406 348.605425 
L 275.957515 349.188192 
L 278.506624 349.939459 
L 281.055733 349.499976 
L 283.604842 349.885016 
L 286.153952 350.10887 
L 291.25217 351.075407 
L 293.801279 350.956449 
L 296.350388 351.643605 
L 303.997716 352.263316 
L 306.546825 352.210671 
L 309.095934 352.487021 
L 311.645043 352.335944 
L 314.194153 352.888867 
L 316.743262 353.13809 
L 319.292371 353.145649 
L 321.84148 353.718662 
L 324.390589 353.701675 
L 326.939698 353.922923 
L 329.488808 354.404768 
L 332.037917 354.105705 
L 334.587026 354.680644 
L 339.685244 354.791461 
L 344.783463 355.657735 
L 347.332572 355.354422 
L 349.881681 355.229171 
L 354.979899 355.881737 
L 357.529009 356.040784 
L 360.078118 355.952651 
L 365.176336 356.499107 
L 367.725445 356.47836 
L 370.274555 358.263324 
L 372.823664 358.691154 
L 375.372773 358.85813 
L 377.921882 359.257802 
L 383.020101 359.384424 
L 388.118319 359.83166 
L 390.667428 359.692134 
L 393.216537 359.935443 
L 395.765646 359.980316 
L 398.314756 360.295148 
L 400.863865 360.435232 
L 403.412974 360.285277 
L 413.609411 360.95959 
L 416.15852 360.678528 
L 421.256738 360.850635 
L 423.805847 361.197583 
L 434.002284 361.434506 
L 439.100503 361.810275 
L 444.198721 361.692743 
L 449.296939 362.04436 
L 451.846048 361.941966 
L 456.944267 361.980495 
L 462.042485 362.367723 
L 464.591594 362.25536 
L 467.140704 362.588597 
L 469.689813 362.635602 
L 472.238922 362.474163 
L 479.886249 362.863217 
L 482.435359 362.759379 
L 484.984468 362.995922 
L 490.082686 363.044671 
L 492.631795 363.221356 
L 495.180905 362.988574 
L 497.730014 364.077164 
L 505.377341 364.750435 
L 510.47556 364.698821 
L 513.024669 364.885118 
L 518.122887 364.842023 
L 523.221106 365.263802 
L 525.770215 365.359272 
L 533.417542 365.275127 
L 535.966651 365.511054 
L 538.515761 365.533729 
L 541.06487 365.21596 
L 543.613979 365.540624 
L 548.712197 365.537569 
L 551.261307 365.75895 
L 558.908634 365.713095 
L 561.457743 365.871801 
L 564.006852 365.808294 
L 569.105071 365.951715 
L 581.850617 366.066461 
L 584.399726 366.255733 
L 592.047053 366.258371 
L 599.694381 366.412873 
L 604.792599 366.579342 
L 607.341709 366.420875 
L 609.890818 366.402984 
L 620.087254 366.826574 
L 622.636364 366.808149 
L 622.636364 366.808149 
" clip-path="url(#pbad1e0568b)" style="fill: none; stroke: #ff7f0e; stroke-width: 1.5; stroke-linecap: square"/>
   </g>
   <g id="line2d_35">
    <path d="M 115.363636 89.497578 
L 117.912746 131.187382 
L 120.461855 152.067428 
L 123.010964 168.60887 
L 125.560073 183.858868 
L 130.658291 212.232194 
L 133.207401 222.349363 
L 135.75651 229.584086 
L 138.305619 235.467983 
L 140.854728 242.958654 
L 143.403837 249.238168 
L 148.502056 259.746769 
L 151.051165 262.289719 
L 153.600274 266.997532 
L 156.149383 268.878954 
L 158.698492 273.502474 
L 161.247602 276.4632 
L 168.894929 283.652688 
L 171.444038 285.89471 
L 173.993148 286.886431 
L 176.542257 287.720487 
L 179.091366 289.781067 
L 181.640475 291.361646 
L 184.189584 291.779493 
L 186.738693 293.584657 
L 189.287803 294.472102 
L 191.836912 295.55798 
L 194.386021 298.38886 
L 196.93513 297.365824 
L 199.484239 298.669486 
L 202.033349 299.143807 
L 204.582458 300.726683 
L 207.131567 301.743394 
L 209.680676 301.525525 
L 212.229785 302.659374 
L 214.778894 304.493555 
L 217.328004 303.968425 
L 219.877113 306.029303 
L 222.426222 305.940508 
L 224.975331 306.418559 
L 227.52444 307.229945 
L 230.07355 307.701777 
L 232.622659 308.899348 
L 235.171768 309.363734 
L 237.720877 309.494594 
L 240.269986 310.759595 
L 242.819095 315.079103 
L 245.368205 316.523467 
L 247.917314 317.265565 
L 250.466423 317.474684 
L 253.015532 317.242923 
L 255.564641 317.249036 
L 260.66286 317.938553 
L 263.211969 319.311637 
L 265.761078 317.967676 
L 268.310187 319.366055 
L 270.859296 320.169342 
L 273.408406 319.4793 
L 275.957515 320.448443 
L 278.506624 320.608314 
L 281.055733 320.95983 
L 283.604842 322.004756 
L 286.153952 321.315296 
L 288.703061 321.069531 
L 291.25217 321.32582 
L 293.801279 320.433396 
L 296.350388 322.169704 
L 298.899497 321.934859 
L 301.448607 322.58875 
L 303.997716 322.713483 
L 309.095934 321.40656 
L 311.645043 322.899924 
L 314.194153 322.495238 
L 316.743262 323.782307 
L 319.292371 322.458747 
L 321.84148 323.381145 
L 324.390589 323.231819 
L 326.939698 323.65268 
L 329.488808 323.862529 
L 332.037917 322.918142 
L 334.587026 323.969251 
L 337.136135 323.966486 
L 339.685244 323.822471 
L 342.234354 324.352571 
L 344.783463 324.241907 
L 347.332572 324.703173 
L 349.881681 323.967202 
L 352.43079 324.65679 
L 354.979899 324.302529 
L 362.627227 325.164085 
L 365.176336 325.005959 
L 367.725445 325.292446 
L 370.274555 329.524129 
L 372.823664 329.356253 
L 375.372773 330.678869 
L 377.921882 330.838087 
L 380.470991 330.739059 
L 383.020101 331.268766 
L 385.56921 330.463567 
L 388.118319 330.044068 
L 390.667428 331.517258 
L 393.216537 331.54636 
L 395.765646 330.86703 
L 398.314756 331.049532 
L 400.863865 331.631958 
L 403.412974 331.444698 
L 405.962083 331.918377 
L 408.511192 331.577802 
L 411.060302 332.598931 
L 416.15852 332.308264 
L 418.707629 332.420414 
L 423.805847 331.88067 
L 426.354957 332.073216 
L 428.904066 331.813343 
L 431.453175 332.290997 
L 434.002284 332.093384 
L 436.551393 332.320446 
L 439.100503 332.239866 
L 441.649612 331.855985 
L 444.198721 331.899855 
L 449.296939 333.333487 
L 451.846048 332.887176 
L 454.395158 332.645768 
L 456.944267 332.015813 
L 459.493376 331.918622 
L 464.591594 333.235941 
L 467.140704 332.537535 
L 469.689813 333.076064 
L 472.238922 333.025305 
L 474.788031 331.462908 
L 477.33714 332.206771 
L 479.886249 333.780752 
L 482.435359 333.220553 
L 484.984468 332.353108 
L 487.533577 333.56066 
L 490.082686 333.065572 
L 492.631795 333.028113 
L 495.180905 332.498179 
L 497.730014 335.690226 
L 500.279123 337.499354 
L 502.828232 337.825115 
L 505.377341 338.289243 
L 507.92645 338.166955 
L 510.47556 338.552318 
L 513.024669 338.03868 
L 515.573778 338.032652 
L 518.122887 338.461026 
L 520.671996 338.161719 
L 523.221106 339.044895 
L 525.770215 338.354442 
L 528.319324 337.955887 
L 530.868433 337.712419 
L 533.417542 338.560749 
L 535.966651 338.051274 
L 541.06487 338.828593 
L 548.712197 338.938694 
L 553.810416 338.582314 
L 556.359525 339.047537 
L 561.457743 338.435814 
L 564.006852 338.867223 
L 566.555962 338.700208 
L 569.105071 338.254843 
L 571.65418 338.940765 
L 574.203289 338.157003 
L 579.301508 339.421968 
L 581.850617 339.289916 
L 586.948835 339.309137 
L 589.497944 339.047523 
L 592.047053 339.437845 
L 594.596163 338.516685 
L 597.145272 339.468912 
L 599.694381 339.2819 
L 602.24349 339.519287 
L 609.890818 338.978174 
L 612.439927 339.056149 
L 614.989036 338.870031 
L 617.538145 339.113662 
L 620.087254 338.079759 
L 622.636364 339.022218 
L 622.636364 339.022218 
" clip-path="url(#pbad1e0568b)" style="fill: none; stroke: #2ca02c; stroke-width: 1.5; stroke-linecap: square"/>
   </g>
   <g id="line2d_36">
    <path d="M 115.363636 66.96 
L 117.912746 75.035508 
L 120.461855 80.834042 
L 123.010964 86.257992 
L 128.109182 96.315226 
L 130.658291 100.453434 
L 133.207401 105.883823 
L 135.75651 112.082639 
L 138.305619 119.351853 
L 140.854728 125.694421 
L 143.403837 134.640781 
L 145.952947 142.492577 
L 148.502056 148.119335 
L 151.051165 155.257674 
L 153.600274 160.267343 
L 156.149383 167.591244 
L 158.698492 173.481368 
L 161.247602 177.741997 
L 163.796711 183.821582 
L 168.894929 193.302447 
L 171.444038 197.438385 
L 176.542257 207.43594 
L 179.091366 211.449712 
L 181.640475 216.157823 
L 184.189584 220.312581 
L 186.738693 222.476735 
L 189.287803 226.919792 
L 191.836912 229.931737 
L 194.386021 232.551612 
L 196.93513 236.660661 
L 199.484239 239.758594 
L 202.033349 241.935327 
L 204.582458 243.137153 
L 207.131567 246.422605 
L 212.229785 251.696491 
L 214.778894 252.98517 
L 217.328004 256.027097 
L 219.877113 256.776931 
L 222.426222 258.628279 
L 224.975331 260.916443 
L 227.52444 261.794373 
L 230.07355 264.16946 
L 232.622659 264.894022 
L 235.171768 267.381568 
L 237.720877 267.736283 
L 240.269986 270.025922 
L 242.819095 276.385672 
L 245.368205 278.113918 
L 247.917314 280.076966 
L 250.466423 281.565445 
L 253.015532 282.519987 
L 255.564641 283.082487 
L 258.113751 284.466222 
L 263.211969 285.521097 
L 265.761078 286.72076 
L 268.310187 288.527093 
L 270.859296 287.863445 
L 273.408406 288.908804 
L 275.957515 290.112565 
L 278.506624 291.729259 
L 281.055733 291.58945 
L 283.604842 292.792119 
L 288.703061 293.907979 
L 291.25217 294.750842 
L 293.801279 294.446617 
L 296.350388 296.04264 
L 303.997716 298.001186 
L 306.546825 298.449177 
L 309.095934 298.749169 
L 311.645043 299.311619 
L 314.194153 300.776626 
L 316.743262 300.127515 
L 321.84148 301.726198 
L 324.390589 302.211212 
L 326.939698 302.835157 
L 329.488808 303.631155 
L 332.037917 303.49943 
L 334.587026 304.296144 
L 337.136135 304.822784 
L 339.685244 305.025024 
L 342.234354 306.161986 
L 344.783463 305.899599 
L 347.332572 306.914579 
L 349.881681 307.74655 
L 352.43079 308.050138 
L 354.979899 308.024765 
L 357.529009 308.342797 
L 360.078118 309.31116 
L 362.627227 309.301452 
L 365.176336 309.729184 
L 367.725445 309.846047 
L 370.274555 314.067874 
L 372.823664 315.537866 
L 375.372773 315.555466 
L 377.921882 316.217129 
L 380.470991 316.395876 
L 383.020101 316.420993 
L 385.56921 316.773998 
L 388.118319 317.323677 
L 390.667428 317.501183 
L 393.216537 318.121916 
L 395.765646 318.143055 
L 400.863865 318.798952 
L 403.412974 319.441228 
L 405.962083 319.197419 
L 408.511192 319.96757 
L 411.060302 319.607133 
L 413.609411 320.177937 
L 416.15852 320.136865 
L 418.707629 320.633062 
L 423.805847 321.332663 
L 428.904066 321.509148 
L 431.453175 322.057862 
L 434.002284 321.954693 
L 439.100503 322.262676 
L 441.649612 323.254313 
L 446.74783 322.734927 
L 449.296939 323.484747 
L 451.846048 323.906572 
L 454.395158 323.609701 
L 456.944267 324.221498 
L 459.493376 324.109025 
L 462.042485 324.479234 
L 467.140704 324.560307 
L 469.689813 325.06411 
L 472.238922 325.27653 
L 474.788031 325.120194 
L 482.435359 325.771968 
L 484.984468 326.580383 
L 487.533577 326.431465 
L 490.082686 325.716139 
L 492.631795 326.30604 
L 495.180905 326.581205 
L 497.730014 330.205005 
L 502.828232 330.169542 
L 505.377341 330.50315 
L 510.47556 330.894097 
L 513.024669 331.25464 
L 515.573778 331.374389 
L 518.122887 331.382008 
L 520.671996 331.623321 
L 523.221106 331.67526 
L 525.770215 332.09344 
L 530.868433 332.137916 
L 533.417542 332.282789 
L 535.966651 332.618967 
L 538.515761 332.482384 
L 541.06487 332.498006 
L 543.613979 332.286033 
L 546.163088 332.77665 
L 548.712197 332.938006 
L 551.261307 332.708854 
L 553.810416 333.390908 
L 558.908634 333.427785 
L 561.457743 333.815637 
L 564.006852 333.28425 
L 566.555962 333.785773 
L 569.105071 334.096593 
L 571.65418 334.082407 
L 576.752398 334.298127 
L 579.301508 334.178981 
L 581.850617 334.245546 
L 584.399726 334.860365 
L 586.948835 334.811326 
L 589.497944 334.414334 
L 592.047053 335.017856 
L 594.596163 334.742407 
L 597.145272 334.882812 
L 599.694381 335.20997 
L 602.24349 335.276765 
L 604.792599 335.120859 
L 607.341709 335.376641 
L 609.890818 335.444517 
L 612.439927 335.340143 
L 614.989036 335.673413 
L 617.538145 335.639982 
L 620.087254 336.002068 
L 622.636364 336.177659 
L 622.636364 336.177659 
" clip-path="url(#pbad1e0568b)" style="fill: none; stroke: #d62728; stroke-width: 1.5; stroke-linecap: square"/>
   </g>
   <g id="patch_3">
    <path d="M 90 384.48 
L 90 51.84 
" style="fill: none; stroke: #000000; stroke-width: 0.8; stroke-linejoin: miter; stroke-linecap: square"/>
   </g>
   <g id="patch_4">
    <path d="M 648 384.48 
L 648 51.84 
" style="fill: none; stroke: #000000; stroke-width: 0.8; stroke-linejoin: miter; stroke-linecap: square"/>
   </g>
   <g id="patch_5">
    <path d="M 90 384.48 
L 648 384.48 
" style="fill: none; stroke: #000000; stroke-width: 0.8; stroke-linejoin: miter; stroke-linecap: square"/>
   </g>
   <g id="patch_6">
    <path d="M 90 51.84 
L 648 51.84 
" style="fill: none; stroke: #000000; stroke-width: 0.8; stroke-linejoin: miter; stroke-linecap: square"/>
   </g>
   <g id="text_19">
    <!-- Train Loss -->
    <g transform="translate(339.54 45.84)scale(0.12 -0.12)">
     <defs>
      <path id="DejaVuSans-54" d="M -19 4666 
L 3928 4666 
L 3928 4134 
L 2272 4134 
L 2272 0 
L 1638 0 
L 1638 4134 
L -19 4134 
L -19 4666 
z
" transform="scale(0.015625)"/>
      <path id="DejaVuSans-72" d="M 2631 2963 
Q 2534 3019 2420 3045 
Q 2306 3072 2169 3072 
Q 1681 3072 1420 2755 
Q 1159 2438 1159 1844 
L 1159 0 
L 581 0 
L 581 3500 
L 1159 3500 
L 1159 2956 
Q 1341 3275 1631 3429 
Q 1922 3584 2338 3584 
Q 2397 3584 2469 3576 
Q 2541 3569 2628 3553 
L 2631 2963 
z
" transform="scale(0.015625)"/>
      <path id="DejaVuSans-61" d="M 2194 1759 
Q 1497 1759 1228 1600 
Q 959 1441 959 1056 
Q 959 750 1161 570 
Q 1363 391 1709 391 
Q 2188 391 2477 730 
Q 2766 1069 2766 1631 
L 2766 1759 
L 2194 1759 
z
M 3341 1997 
L 3341 0 
L 2766 0 
L 2766 531 
Q 2569 213 2275 61 
Q 1981 -91 1556 -91 
Q 1019 -91 701 211 
Q 384 513 384 1019 
Q 384 1609 779 1909 
Q 1175 2209 1959 2209 
L 2766 2209 
L 2766 2266 
Q 2766 2663 2505 2880 
Q 2244 3097 1772 3097 
Q 1472 3097 1187 3025 
Q 903 2953 641 2809 
L 641 3341 
Q 956 3463 1253 3523 
Q 1550 3584 1831 3584 
Q 2591 3584 2966 3190 
Q 3341 2797 3341 1997 
z
" transform="scale(0.015625)"/>
      <path id="DejaVuSans-69" d="M 603 3500 
L 1178 3500 
L 1178 0 
L 603 0 
L 603 3500 
z
M 603 4863 
L 1178 4863 
L 1178 4134 
L 603 4134 
L 603 4863 
z
" transform="scale(0.015625)"/>
      <path id="DejaVuSans-6e" d="M 3513 2113 
L 3513 0 
L 2938 0 
L 2938 2094 
Q 2938 2591 2744 2837 
Q 2550 3084 2163 3084 
Q 1697 3084 1428 2787 
Q 1159 2491 1159 1978 
L 1159 0 
L 581 0 
L 581 3500 
L 1159 3500 
L 1159 2956 
Q 1366 3272 1645 3428 
Q 1925 3584 2291 3584 
Q 2894 3584 3203 3211 
Q 3513 2838 3513 2113 
z
" transform="scale(0.015625)"/>
      <path id="DejaVuSans-20" transform="scale(0.015625)"/>
     </defs>
     <use xlink:href="#DejaVuSans-54"/>
     <use xlink:href="#DejaVuSans-72" x="46.333984"/>
     <use xlink:href="#DejaVuSans-61" x="87.447266"/>
     <use xlink:href="#DejaVuSans-69" x="148.726562"/>
     <use xlink:href="#DejaVuSans-6e" x="176.509766"/>
     <use xlink:href="#DejaVuSans-20" x="239.888672"/>
     <use xlink:href="#DejaVuSans-4c" x="271.675781"/>
     <use xlink:href="#DejaVuSans-6f" x="325.638672"/>
     <use xlink:href="#DejaVuSans-73" x="386.820312"/>
     <use xlink:href="#DejaVuSans-73" x="438.919922"/>
    </g>
   </g>
   <g id="legend_1">
    <g id="patch_7">
     <path d="M 524.360937 118.5525 
L 641 118.5525 
Q 643 118.5525 643 116.5525 
L 643 58.84 
Q 643 56.84 641 56.84 
L 524.360937 56.84 
Q 522.360937 56.84 522.360937 58.84 
L 522.360937 116.5525 
Q 522.360937 118.5525 524.360937 118.5525 
z
" style="fill: #ffffff; opacity: 0.8; stroke: #cccccc; stroke-linejoin: miter"/>
    </g>
    <g id="line2d_37">
     <path d="M 526.360937 64.938438 
L 536.360937 64.938438 
L 546.360937 64.938438 
" style="fill: none; stroke: #1f77b4; stroke-width: 1.5; stroke-linecap: square"/>
    </g>
    <g id="text_20">
     <!-- CNN-LSTM -->
     <g transform="translate(554.360937 68.438438)scale(0.1 -0.1)">
      <defs>
       <path id="DejaVuSans-43" d="M 4122 4306 
L 4122 3641 
Q 3803 3938 3442 4084 
Q 3081 4231 2675 4231 
Q 1875 4231 1450 3742 
Q 1025 3253 1025 2328 
Q 1025 1406 1450 917 
Q 1875 428 2675 428 
Q 3081 428 3442 575 
Q 3803 722 4122 1019 
L 4122 359 
Q 3791 134 3420 21 
Q 3050 -91 2638 -91 
Q 1578 -91 968 557 
Q 359 1206 359 2328 
Q 359 3453 968 4101 
Q 1578 4750 2638 4750 
Q 3056 4750 3426 4639 
Q 3797 4528 4122 4306 
z
" transform="scale(0.015625)"/>
       <path id="DejaVuSans-4e" d="M 628 4666 
L 1478 4666 
L 3547 763 
L 3547 4666 
L 4159 4666 
L 4159 0 
L 3309 0 
L 1241 3903 
L 1241 0 
L 628 0 
L 628 4666 
z
" transform="scale(0.015625)"/>
       <path id="DejaVuSans-2d" d="M 313 2009 
L 1997 2009 
L 1997 1497 
L 313 1497 
L 313 2009 
z
" transform="scale(0.015625)"/>
       <path id="DejaVuSans-53" d="M 3425 4513 
L 3425 3897 
Q 3066 4069 2747 4153 
Q 2428 4238 2131 4238 
Q 1616 4238 1336 4038 
Q 1056 3838 1056 3469 
Q 1056 3159 1242 3001 
Q 1428 2844 1947 2747 
L 2328 2669 
Q 3034 2534 3370 2195 
Q 3706 1856 3706 1288 
Q 3706 609 3251 259 
Q 2797 -91 1919 -91 
Q 1588 -91 1214 -16 
Q 841 59 441 206 
L 441 856 
Q 825 641 1194 531 
Q 1563 422 1919 422 
Q 2459 422 2753 634 
Q 3047 847 3047 1241 
Q 3047 1584 2836 1778 
Q 2625 1972 2144 2069 
L 1759 2144 
Q 1053 2284 737 2584 
Q 422 2884 422 3419 
Q 422 4038 858 4394 
Q 1294 4750 2059 4750 
Q 2388 4750 2728 4690 
Q 3069 4631 3425 4513 
z
" transform="scale(0.015625)"/>
       <path id="DejaVuSans-4d" d="M 628 4666 
L 1569 4666 
L 2759 1491 
L 3956 4666 
L 4897 4666 
L 4897 0 
L 4281 0 
L 4281 4097 
L 3078 897 
L 2444 897 
L 1241 4097 
L 1241 0 
L 628 0 
L 628 4666 
z
" transform="scale(0.015625)"/>
      </defs>
      <use xlink:href="#DejaVuSans-43"/>
      <use xlink:href="#DejaVuSans-4e" x="69.824219"/>
      <use xlink:href="#DejaVuSans-4e" x="144.628906"/>
      <use xlink:href="#DejaVuSans-2d" x="219.433594"/>
      <use xlink:href="#DejaVuSans-4c" x="255.517578"/>
      <use xlink:href="#DejaVuSans-53" x="311.230469"/>
      <use xlink:href="#DejaVuSans-54" x="374.707031"/>
      <use xlink:href="#DejaVuSans-4d" x="435.791016"/>
     </g>
    </g>
    <g id="line2d_38">
     <path d="M 526.360937 79.616563 
L 536.360937 79.616563 
L 546.360937 79.616563 
" style="fill: none; stroke: #ff7f0e; stroke-width: 1.5; stroke-linecap: square"/>
    </g>
    <g id="text_21">
     <!-- CNN-Transformer -->
     <g transform="translate(554.360937 83.116563)scale(0.1 -0.1)">
      <defs>
       <path id="DejaVuSans-66" d="M 2375 4863 
L 2375 4384 
L 1825 4384 
Q 1516 4384 1395 4259 
Q 1275 4134 1275 3809 
L 1275 3500 
L 2222 3500 
L 2222 3053 
L 1275 3053 
L 1275 0 
L 697 0 
L 697 3053 
L 147 3053 
L 147 3500 
L 697 3500 
L 697 3744 
Q 697 4328 969 4595 
Q 1241 4863 1831 4863 
L 2375 4863 
z
" transform="scale(0.015625)"/>
       <path id="DejaVuSans-6d" d="M 3328 2828 
Q 3544 3216 3844 3400 
Q 4144 3584 4550 3584 
Q 5097 3584 5394 3201 
Q 5691 2819 5691 2113 
L 5691 0 
L 5113 0 
L 5113 2094 
Q 5113 2597 4934 2840 
Q 4756 3084 4391 3084 
Q 3944 3084 3684 2787 
Q 3425 2491 3425 1978 
L 3425 0 
L 2847 0 
L 2847 2094 
Q 2847 2600 2669 2842 
Q 2491 3084 2119 3084 
Q 1678 3084 1418 2786 
Q 1159 2488 1159 1978 
L 1159 0 
L 581 0 
L 581 3500 
L 1159 3500 
L 1159 2956 
Q 1356 3278 1631 3431 
Q 1906 3584 2284 3584 
Q 2666 3584 2933 3390 
Q 3200 3197 3328 2828 
z
" transform="scale(0.015625)"/>
       <path id="DejaVuSans-65" d="M 3597 1894 
L 3597 1613 
L 953 1613 
Q 991 1019 1311 708 
Q 1631 397 2203 397 
Q 2534 397 2845 478 
Q 3156 559 3463 722 
L 3463 178 
Q 3153 47 2828 -22 
Q 2503 -91 2169 -91 
Q 1331 -91 842 396 
Q 353 884 353 1716 
Q 353 2575 817 3079 
Q 1281 3584 2069 3584 
Q 2775 3584 3186 3129 
Q 3597 2675 3597 1894 
z
M 3022 2063 
Q 3016 2534 2758 2815 
Q 2500 3097 2075 3097 
Q 1594 3097 1305 2825 
Q 1016 2553 972 2059 
L 3022 2063 
z
" transform="scale(0.015625)"/>
      </defs>
      <use xlink:href="#DejaVuSans-43"/>
      <use xlink:href="#DejaVuSans-4e" x="69.824219"/>
      <use xlink:href="#DejaVuSans-4e" x="144.628906"/>
      <use xlink:href="#DejaVuSans-2d" x="219.433594"/>
      <use xlink:href="#DejaVuSans-54" x="246.392578"/>
      <use xlink:href="#DejaVuSans-72" x="292.726562"/>
      <use xlink:href="#DejaVuSans-61" x="333.839844"/>
      <use xlink:href="#DejaVuSans-6e" x="395.119141"/>
      <use xlink:href="#DejaVuSans-73" x="458.498047"/>
      <use xlink:href="#DejaVuSans-66" x="510.597656"/>
      <use xlink:href="#DejaVuSans-6f" x="545.802734"/>
      <use xlink:href="#DejaVuSans-72" x="606.984375"/>
      <use xlink:href="#DejaVuSans-6d" x="646.347656"/>
      <use xlink:href="#DejaVuSans-65" x="743.759766"/>
      <use xlink:href="#DejaVuSans-72" x="805.283203"/>
     </g>
    </g>
    <g id="line2d_39">
     <path d="M 526.360937 94.294688 
L 536.360937 94.294688 
L 546.360937 94.294688 
" style="fill: none; stroke: #2ca02c; stroke-width: 1.5; stroke-linecap: square"/>
    </g>
    <g id="text_22">
     <!-- Conv1D -->
     <g transform="translate(554.360937 97.794688)scale(0.1 -0.1)">
      <defs>
       <path id="DejaVuSans-76" d="M 191 3500 
L 800 3500 
L 1894 563 
L 2988 3500 
L 3597 3500 
L 2284 0 
L 1503 0 
L 191 3500 
z
" transform="scale(0.015625)"/>
       <path id="DejaVuSans-44" d="M 1259 4147 
L 1259 519 
L 2022 519 
Q 2988 519 3436 956 
Q 3884 1394 3884 2338 
Q 3884 3275 3436 3711 
Q 2988 4147 2022 4147 
L 1259 4147 
z
M 628 4666 
L 1925 4666 
Q 3281 4666 3915 4102 
Q 4550 3538 4550 2338 
Q 4550 1131 3912 565 
Q 3275 0 1925 0 
L 628 0 
L 628 4666 
z
" transform="scale(0.015625)"/>
      </defs>
      <use xlink:href="#DejaVuSans-43"/>
      <use xlink:href="#DejaVuSans-6f" x="69.824219"/>
      <use xlink:href="#DejaVuSans-6e" x="131.005859"/>
      <use xlink:href="#DejaVuSans-76" x="194.384766"/>
      <use xlink:href="#DejaVuSans-31" x="253.564453"/>
      <use xlink:href="#DejaVuSans-44" x="317.1875"/>
     </g>
    </g>
    <g id="line2d_40">
     <path d="M 526.360937 108.972813 
L 536.360937 108.972813 
L 546.360937 108.972813 
" style="fill: none; stroke: #d62728; stroke-width: 1.5; stroke-linecap: square"/>
    </g>
    <g id="text_23">
     <!-- MLP -->
     <g transform="translate(554.360937 112.472813)scale(0.1 -0.1)">
      <defs>
       <path id="DejaVuSans-50" d="M 1259 4147 
L 1259 2394 
L 2053 2394 
Q 2494 2394 2734 2622 
Q 2975 2850 2975 3272 
Q 2975 3691 2734 3919 
Q 2494 4147 2053 4147 
L 1259 4147 
z
M 628 4666 
L 2053 4666 
Q 2838 4666 3239 4311 
Q 3641 3956 3641 3272 
Q 3641 2581 3239 2228 
Q 2838 1875 2053 1875 
L 1259 1875 
L 1259 0 
L 628 0 
L 628 4666 
z
" transform="scale(0.015625)"/>
      </defs>
      <use xlink:href="#DejaVuSans-4d"/>
      <use xlink:href="#DejaVuSans-4c" x="86.279297"/>
      <use xlink:href="#DejaVuSans-50" x="141.992188"/>
     </g>
    </g>
   </g>
  </g>
 </g>
 <defs>
  <clipPath id="pbad1e0568b">
   <rect x="90" y="51.84" width="558" height="332.64"/>
  </clipPath>
 </defs>
</svg>
